<svg xmlns="http://www.w3.org/2000/svg" xmlns:xlink="http://www.w3.org/1999/xlink" id="Layer_1" width="217.975" height="289.091" x="0" y="0" enable-background="new 0 0 217.975 289.091" version="1.1" viewBox="0 0 217.975 289.091" xml:space="preserve"><g><polygon fill="#A16627" points=".053 155.978 0 155.854 .12 155.783 152.642 0 177.811 102.696 217.975 272.758 143.138 289.091 59.96 289.091 7.646 274.758"/><g><g><path fill="#9B6225" d="M59.96,289.091"/><line x1="59.907" x2=".02" y1="289.091" y2="156.091" fill="#A16627"/><polygon fill="#9C6228" points="0 155.854 116.748 289.091 59.96 289.091"/><polygon fill="#A16627" points="80.438 108.254 0 155.854 116.748 289.091"/><polygon fill="#A66928" points="80.438 108.254 152.642 0 116.748 289.091 116.748 289.091"/></g><g><polygon fill="#B6732C" points=".046 155.865 81.22 107.79 152.642 0"/></g><polygon fill="#A16627" points="152.642 0 177.811 102.696 116.748 289.091"/><polygon fill="#9C6228" points="177.811 102.696 143.138 289.091 116.748 289.091"/><polygon fill="#B37129" points="177.811 102.696 217.975 272.758 143.138 289.091"/></g><polygon fill="#A66928" points=".046 155.865 7.646 274.758 59.96 289.091"/><polygon fill="#A16627" points="59.96 289.091 143.138 289.091 116.748 289.091"/></g></svg>