<svg xmlns="http://www.w3.org/2000/svg" xmlns:xlink="http://www.w3.org/1999/xlink" id="Layer_1" width="794.966" height="228.681" x="0" y="0" enable-background="new 0 0 794.966 228.681" version="1.1" viewBox="0 0 794.966 228.681" xml:space="preserve"><g opacity=".5"><polygon fill="#BD782A" points="657.261 82.651 620.343 64.044 794.981 .009"/><polygon fill="#B6732A" points="657.261 82.651 485.11 227.218 621.448 64.044"/><polygon fill="#C47C2A" points="412.905 164.499 164.761 22.022 160.565 187.708"/><polygon fill="#BD782A" points="164.761 22.022 127.161 127.073 160.565 187.708"/><g><polygon fill="#C47C2A" points="412.905 164.499 546.108 29.095 417.433 116.017"/><g><polygon fill="#BD782A" points="412.905 164.499 417.433 116.017 280.966 56.642"/><polygon fill="#B6732A" points="412.905 164.499 280.966 56.642 164.761 22.022"/></g></g><g><polygon fill="#C47C2A" points="485.11 227.218 412.87 164.394 363.456 212.409"/><polygon fill="#BD782A" points="160.565 187.708 363.456 212.409 412.87 164.394 412.87 164.394"/></g><g><polygon fill="#B6732A" points="485.126 227.251 546.108 29.095 412.905 164.499"/><g><polygon fill="#C47C2A" points="794.997 -.001 578.655 13.468 621.419 64.39"/><polygon fill="#BD782A" points="485.11 227.218 621.419 64.39 578.655 13.468 546.108 29.095"/></g></g><polygon fill="#B6732A" points="127.161 127.073 97.308 90.03 164.761 22.022"/><g><polygon fill="#B6732A" points="794.981 .009 654.897 83.761 652.985 84.646 794.966 169.603"/><polygon fill="#BD782A" points="794.966 169.603 794.966 169.603 652.985 84.646 485.11 227.218"/></g><polygon fill="#C47C2A" points="164.761 22.022 43.813 46.353 97.308 90.03"/><polygon fill="#BD782A" points="97.308 90.03 26.399 82.013 43.813 46.353"/><polygon fill="#B6732A" points="43.813 46.353 -.001 30.317 26.399 82.013"/><polygon fill="#C47C2A" points="43.813 46.353 56.669 20.089 -.001 30.317"/><polygon fill="#B6732A" points="43.813 46.353 73.048 40.546 56.669 20.089"/></g></svg>