<svg xmlns="http://www.w3.org/2000/svg" xmlns:xlink="http://www.w3.org/1999/xlink" id="Layer_1" width="184.643" height="205.096" x="0" y="0" enable-background="new 0 0 184.643 205.096" version="1.1" viewBox="0 0 184.643 205.096" xml:space="preserve"><g><polygon fill="#A16627" points=".038 100.658 .001 100.57 .087 100.521 118.294 0 119.149 112.857 184.643 186.352 148.097 200.854 52.54 205.095 26.259 190.368"/><g><g><path fill="#9B6225" d="M52.54,205.095"/><line x1="52.503" x2=".015" y1="205.095" y2="100.738" fill="#A16627"/><polygon fill="#B37129" points=".001 100.57 92.829 205.095 52.54 205.095"/><polygon fill="#A16627" points="67.067 76.801 .001 100.57 92.829 205.095"/><polygon fill="#A66928" points="67.067 76.801 118.294 0 92.829 205.095 92.829 205.095"/></g><g><polygon fill="#B6732C" points=".034 100.578 67.622 76.472 118.294 0"/></g><polygon fill="#9C6228" points="118.294 0 119.149 112.857 92.829 205.095"/><polygon fill="#A66928" points="119.149 112.857 148.097 200.854 92.829 205.095"/><polygon fill="#B37129" points="119.149 112.857 184.643 186.352 148.097 200.854"/></g><polygon fill="#A66928" points=".034 100.578 26.259 190.368 52.54 205.095"/><polygon fill="#A16627" points="52.54 205.095 148.097 200.854 92.829 205.095"/></g></svg>