<svg xmlns="http://www.w3.org/2000/svg" xmlns:xlink="http://www.w3.org/1999/xlink" id="Layer_1" width="171.55" height="205.096" x="0" y="0" enable-background="new 0 0 171.55 205.096" version="1.1" viewBox="0 0 171.55 205.096" xml:space="preserve"><g><polygon fill="#A16627" points="171.511 150.658 171.55 150.57 171.464 150.521 103.257 0 55.401 82.857 6.907 145.096 -.001 196.35 119.011 205.095 156.124 196.35"/><g><g><path fill="#9B6225" d="M119.011,205.095"/><line x1="119.048" x2="171.534" y1="205.095" y2="150.738" fill="#A16627"/><polygon fill="#B37129" points="171.55 150.57 58.919 205.095 119.011 205.095"/><polygon fill="#A16627" points="114.483 76.801 171.55 150.57 58.919 205.095"/><polygon fill="#A66928" points="114.483 76.801 103.257 0 58.919 205.095 58.919 205.095"/></g><g><polygon fill="#B6732C" points="171.517 150.578 113.927 76.472 103.257 0"/></g><polygon fill="#B6732C" points="103.257 0 55.401 82.857 58.919 205.095"/><polygon fill="#A66928" points="55.401 82.857 -.001 196.35 58.919 205.095"/><polygon fill="#B37129" points="55.401 82.857 6.907 145.096 -.001 196.35"/></g><polygon fill="#9C6228" points="171.517 150.578 156.124 196.35 119.011 205.095"/></g></svg>