<svg xmlns="http://www.w3.org/2000/svg" xmlns:xlink="http://www.w3.org/1999/xlink" id="Layer_1" width="222.668" height="100.667" x="0" y="0" enable-background="new 0 0 222.668 100.667" version="1.1" viewBox="0 0 222.668 100.667" xml:space="preserve"><g><path fill="#BB956F" d="M191.078,14.183L90.675,6.673L68.339,25.757L46.211,43.38l7.192,24.85l136.668,2.926l26.683-8.652 L191.078,14.183z"/><polygon fill="#977B5A" points="46.211 43.38 190.071 71.156 5.292 96.187 7.96 70.521" opacity=".5"/><polygon fill="#886F51" points="90.229 17.664 178.91 31.595 216.754 62.503 46.211 43.38"/><polygon fill="#BB956F" points="66.261 31.666 68.339 25.757 90.675 6.673 90.229 17.664"/><polygon fill="#B5916B" points="68.339 25.757 53.403 68.23 46.211 43.38"/><polygon fill="#B5916B" points="216.754 62.503 191.078 14.183 178.91 31.595"/><polygon fill="#BF9972" points="90.675 6.673 191.078 14.183 178.91 31.595 90.229 17.664"/><polygon fill="#BB956F" points="46.211 43.38 178.91 31.595 216.754 62.503 190.071 71.156 53.403 68.23"/></g></svg>