<svg xmlns="http://www.w3.org/2000/svg" xmlns:xlink="http://www.w3.org/1999/xlink" id="Layer_1" width="272.156" height="286.057" x="0" y="0" enable-background="new 0 0 272.156 286.057" version="1.1" viewBox="0 0 272.156 286.057" xml:space="preserve"><g><polygon fill="#CEEBF4" points="180.812 0 157.687 10.396 135.88 83.064 118.994 118.223 85.124 189.902 216.588 236.732 255.814 189.902 221.943 120.477"/><polygon fill="#5485BA" points="255.814 189.902 216.588 236.732 85.124 189.902 149.969 127.279"/><polygon fill="#78A6D3" points="255.814 189.902 272.012 195.502 216.588 236.732 91.713 227.714 64.989 200.7 85.124 189.902 216.588 236.732 149.969 127.279 221.943 120.477"/><polygon fill="#303D77" points="85.124 189.902 64.989 200.7 10.07 262.753 18.748 284.545 216.588 236.732" opacity=".5"/><polygon fill="#CEEBF4" points="180.812 0 157.687 10.396 157.521 41.72"/><polygon fill="#CEEBF4" points="170.279 57.629 157.521 41.72 180.812 0"/><polygon fill="#B6D9E6" points="157.521 41.72 135.88 83.064 157.687 10.396"/><polygon fill="#CEEBF4" points="157.521 41.72 149.969 127.279 135.88 83.064"/><polygon fill="#75B4D3" points="85.124 189.902 149.969 127.279 135.88 83.064 118.994 118.223"/><polygon fill="#94CEDC" points="255.814 189.902 149.969 127.279 170.279 57.629 221.943 120.477"/><polygon fill="#B6D9E6" points="170.279 57.629 157.521 41.72 149.969 127.279"/></g></svg>