<svg xmlns="http://www.w3.org/2000/svg" xmlns:xlink="http://www.w3.org/1999/xlink" id="Layer_1" width="917.22" height="436.146" x="0" y="0" enable-background="new 0 0 917.22 436.146" version="1.1" viewBox="0 0 917.22 436.146" xml:space="preserve"><g opacity=".5"><defs><path id="SVGID_1_" d="M917.221,419.469c-60.901,14.275-133.379,20.304-219.636,14.464 C298.917,406.928,260.884,268.348,0,292.403L0.01,44.707C121.501,10.064,288-33.59,478.638,40.52 c200.261,77.852,333.303,87.612,438.573,70.89L917.221,419.469z" opacity=".5"/></defs><linearGradient id="SVGID_2_" x1="883.259" x2="32.629" y1="218.072" y2="218.072" gradientUnits="userSpaceOnUse"><stop offset="0" style="stop-color:#282560"/><stop offset=".039" style="stop-color:#292b65"/><stop offset=".4" style="stop-color:#336391"/><stop offset=".69" style="stop-color:#3991bd"/><stop offset=".897" style="stop-color:#3ab2df"/><stop offset="1" style="stop-color:#38c2f1"/></linearGradient><use fill="url(#SVGID_2_)" overflow="visible" xlink:href="#SVGID_1_"/><clipPath id="SVGID_3_"><use overflow="visible" xlink:href="#SVGID_1_"/></clipPath><polygon fill="#F1F2F2" points="1010.357 489.044 1033.266 -29.254 726.038 14.388" clip-path="url(#SVGID_3_)" opacity=".2"/><polygon fill="#D1D3D4" points="1010.357 489.044 726.038 14.388 334.789 466.378" clip-path="url(#SVGID_3_)" opacity=".2"/><polygon fill="#F1F2F2" points="334.789 466.378 726.038 14.388 281.158 -29.254" clip-path="url(#SVGID_3_)" opacity=".2"/><polygon fill="#D1D3D4" points="334.789 466.378 281.158 -29.254 -45.834 381.346" clip-path="url(#SVGID_3_)" opacity=".2"/><polygon fill="#BCBEC0" points="-45.834 381.346 281.158 -29.254 -236.435 14.388" clip-path="url(#SVGID_3_)" opacity=".2"/></g><g opacity=".5"><defs><path id="SVGID_4_" d="M-1.061,716.359c53.596-25.168,141.735-79.953,436.095,12.898 c167.967,52.982,390.814,67.33,481.125-24.814V487.061c-534.343-84.191-917.22,67.977-917.22,67.977V716.359z" opacity=".5"/></defs><linearGradient id="SVGID_5_" x1="904.963" x2="6.319" y1="616.508" y2="616.508" gradientUnits="userSpaceOnUse"><stop offset="0" style="stop-color:#282560"/><stop offset=".039" style="stop-color:#292b65"/><stop offset=".4" style="stop-color:#336391"/><stop offset=".69" style="stop-color:#3991bd"/><stop offset=".897" style="stop-color:#3ab2df"/><stop offset="1" style="stop-color:#38c2f1"/></linearGradient><use fill="url(#SVGID_5_)" overflow="visible" xlink:href="#SVGID_4_"/><clipPath id="SVGID_6_"><use overflow="visible" xlink:href="#SVGID_4_"/></clipPath><polygon fill="#F1F2F2" points="-38.692 950.1 222.716 314.762 -326.196 652.014" clip-path="url(#SVGID_6_)" opacity=".2"/><polygon fill="#E6E7E8" points="-38.692 950.1 222.716 314.762 658.083 831.865" clip-path="url(#SVGID_6_)" opacity=".2"/><polygon fill="#D1D3D4" points="658.083 831.865 222.716 314.762 555.059 204.658" clip-path="url(#SVGID_6_)" opacity=".2"/><polygon fill="#F1F2F2" points="658.083 831.865 555.059 204.658 962.25 933.375" clip-path="url(#SVGID_6_)" opacity=".2"/><polygon fill="#E6E7E8" points="962.25 933.375 555.059 204.658 1239.24 612.814" clip-path="url(#SVGID_6_)" opacity=".2"/></g></svg>