<svg xmlns="http://www.w3.org/2000/svg" xmlns:xlink="http://www.w3.org/1999/xlink" id="Layer_1" width="266.558" height="257.238" x="0" y="0" enable-background="new 0 0 266.558 257.238" version="1.1" viewBox="0 0 266.558 257.238" xml:space="preserve"><g opacity=".5"><defs><path id="SVGID_1_" d="M-24.042,390.244c-60.901,14.275-133.379,20.304-219.636,14.464 c-398.668-27.005-436.701-165.585-697.585-141.529l0.01-247.696c121.491-34.643,287.99-78.297,478.628-4.187 c200.261,77.852,333.303,87.612,438.573,70.89L-24.042,390.244z" opacity=".5"/></defs><linearGradient id="SVGID_2_" x1="-58.004" x2="-908.634" y1="188.848" y2="188.848" gradientUnits="userSpaceOnUse"><stop offset="0" style="stop-color:#282560"/><stop offset=".039" style="stop-color:#292b65"/><stop offset=".4" style="stop-color:#336391"/><stop offset=".69" style="stop-color:#3991bd"/><stop offset=".897" style="stop-color:#3ab2df"/><stop offset="1" style="stop-color:#38c2f1"/></linearGradient><use fill="url(#SVGID_2_)" overflow="visible" xlink:href="#SVGID_1_"/><clipPath id="SVGID_3_"><use overflow="visible" xlink:href="#SVGID_1_"/></clipPath><polygon fill="#F1F2F2" points="69.095 459.819 92.003 -58.479 -215.225 -14.837" clip-path="url(#SVGID_3_)" opacity=".2"/><polygon fill="#D1D3D4" points="69.095 459.819 -215.225 -14.837 -606.474 437.153" clip-path="url(#SVGID_3_)" opacity=".2"/></g><g><polygon fill="#CEEBF4" points="159.033 .001 181.997 10.324 202.749 60.288 211.355 101.84 244.987 173.015 148.042 219.516 75.497 173.015 107.229 89.392"/><polygon fill="#78A6D3" points="75.497 173.015 59.413 178.576 148.042 219.516 238.444 210.561 264.98 183.737 244.987 173.015 180.599 110.833 107.229 89.392"/><polygon fill="#5485BA" points="180.599 110.833 75.497 173.015 148.042 219.516"/><polygon fill="#5485BA" points="75.497 173.015 148.042 219.516 75.497 173.015 180.599 110.833"/><polygon fill="#303D77" points="75.497 173.015 148.042 219.516 7.804 254.984 0 231.339 59.413 178.576" opacity=".5"/><polygon fill="#CEEBF4" points="159.033 .001 181.997 10.324 173.1 25.876"/><polygon fill="#CEEBF4" points="160.431 41.673 173.1 25.876 159.033 .001"/><polygon fill="#B6D9E6" points="173.1 25.876 202.749 60.288 181.997 10.324"/><polygon fill="#CEEBF4" points="173.1 25.876 180.599 110.833 202.749 60.288"/><polygon fill="#75B4D3" points="244.987 173.015 180.599 110.833 202.749 60.288 211.355 101.84"/><polygon fill="#94CEDC" points="75.497 173.015 180.599 110.833 160.431 41.673 107.229 89.392"/><polygon fill="#B6D9E6" points="160.431 41.673 173.1 25.876 180.599 110.833"/></g><g opacity=".5"><defs><path id="SVGID_4_" d="M-942.323,687.135c53.596-25.168,141.735-79.953,436.095,12.898 c167.967,52.982,390.814,67.33,481.125-24.814V457.836c-534.343-84.191-917.22,67.977-917.22,67.977V687.135z" opacity=".5"/></defs><linearGradient id="SVGID_5_" x1="-36.3" x2="-934.943" y1="587.283" y2="587.283" gradientUnits="userSpaceOnUse"><stop offset="0" style="stop-color:#282560"/><stop offset=".039" style="stop-color:#292b65"/><stop offset=".4" style="stop-color:#336391"/><stop offset=".69" style="stop-color:#3991bd"/><stop offset=".897" style="stop-color:#3ab2df"/><stop offset="1" style="stop-color:#38c2f1"/></linearGradient><use fill="url(#SVGID_5_)" overflow="visible" xlink:href="#SVGID_4_"/><clipPath id="SVGID_6_"><use overflow="visible" xlink:href="#SVGID_4_"/></clipPath><polygon fill="#F1F2F2" points="-283.18 802.641 -386.204 175.434 20.987 904.15" clip-path="url(#SVGID_6_)" opacity=".2"/><polygon fill="#E6E7E8" points="20.987 904.15 -386.204 175.434 297.978 583.59" clip-path="url(#SVGID_6_)" opacity=".2"/></g></svg>