<svg xmlns="http://www.w3.org/2000/svg" xmlns:xlink="http://www.w3.org/1999/xlink" id="Layer_1" width="915.099" height="400.482" x="0" y="0" enable-background="new 0 0 915.099 400.482" version="1.1" viewBox="0 0 915.099 400.482" xml:space="preserve"><g opacity=".5"><defs><path id="SVGID_7_" d="M917.069-243.319c-52.423-5.603-105.16-5.622-158.856,8.391 c-140.614,36.693-260.028,97.864-410.132,92.547c-57.218-2.027-218.994-37.567-348.078-33.564L0-108.184 c131.203,18.393,257.806,73.352,396.08,82.771c87.906,5.989,177.179-45.958,252.835-84.014 c89.828-45.184,154.404-66.832,255.161-72.476c4.456-0.25,8.914-0.501,13.373-0.751L917.069-243.319z" opacity=".5"/></defs><linearGradient id="SVGID_2_" x1="0" x2="917.449" y1="-135.882" y2="-135.882" gradientUnits="userSpaceOnUse"><stop offset="0" style="stop-color:#282560"/><stop offset=".039" style="stop-color:#292b65"/><stop offset=".4" style="stop-color:#336391"/><stop offset=".69" style="stop-color:#3991bd"/><stop offset=".897" style="stop-color:#3ab2df"/><stop offset="1" style="stop-color:#38c2f1"/></linearGradient><use fill="url(#SVGID_2_)" overflow="visible" xlink:href="#SVGID_7_"/><clipPath id="SVGID_3_"><use overflow="visible" xlink:href="#SVGID_7_"/></clipPath><polygon fill="#E6E7E8" points="800.501 -24.938 661.684 -376.844 327.45 20.723" clip-path="url(#SVGID_3_)" opacity=".2"/><polygon fill="#D1D3D4" points="327.45 20.723 661.684 -376.844 218.292 -320.496" clip-path="url(#SVGID_3_)" opacity=".2"/><polygon fill="#F1F2F2" points="327.45 20.723 218.292 -320.496 28.659 20.723" clip-path="url(#SVGID_3_)" opacity=".2"/><polygon fill="#E6E7E8" points="28.659 20.723 218.292 -320.496 -121.672 -150.188" clip-path="url(#SVGID_3_)" opacity=".2"/></g><g opacity=".5"><defs><path id="SVGID_10_" d="M915.092,262.05c-258.818,99.208-543.359,165.565-796.381,127.587 c-44.746-6.716-84.148-14.221-118.713-22.383L0,0c0,0,425.254,122.335,915.098,84.159L915.092,262.05z" opacity=".5"/></defs><linearGradient id="SVGID_5_" x1="-.002" x2="915.098" y1="200.241" y2="200.241" gradientUnits="userSpaceOnUse"><stop offset="0" style="stop-color:#282560"/><stop offset=".039" style="stop-color:#292b65"/><stop offset=".4" style="stop-color:#336391"/><stop offset=".69" style="stop-color:#3991bd"/><stop offset=".897" style="stop-color:#3ab2df"/><stop offset="1" style="stop-color:#38c2f1"/></linearGradient><use fill="url(#SVGID_5_)" overflow="visible" xlink:href="#SVGID_10_"/><clipPath id="SVGID_6_"><use overflow="visible" xlink:href="#SVGID_10_"/></clipPath><polygon fill="#F1F2F2" points="890.711 -6.979 1165.203 550.237 366.295 -41.445" clip-path="url(#SVGID_6_)" opacity=".2"/><polygon fill="#D1D3D4" points="366.295 -41.445 1165.203 550.237 288.453 643.001" clip-path="url(#SVGID_6_)" opacity=".2"/><polygon fill="#F1F2F2" points="288.453 643.001 366.295 -41.445 -362.965 271.717" clip-path="url(#SVGID_6_)" opacity=".2"/><polygon fill="#E6E7E8" points="-362.965 271.717 366.295 -41.445 -27.013 -193.481" clip-path="url(#SVGID_6_)" opacity=".2"/></g></svg>