<svg xmlns="http://www.w3.org/2000/svg" xmlns:xlink="http://www.w3.org/1999/xlink" id="Layer_1" width="917.22" height="309.673" x="0" y="0" enable-background="new 0 0 917.22 309.673" version="1.1" viewBox="0 0 917.22 309.673" xml:space="preserve"><g opacity=".5"><defs><path id="SVGID_1_" d="M918.281-42.203C857.38-27.928,784.902-21.899,698.646-27.739 C299.978-54.744,261.944-193.324,1.061-169.269l0.01-247.696c121.491-34.643,287.99-78.297,478.628-4.187 c200.261,77.852,333.303,87.612,438.573,70.89L918.281-42.203z" opacity=".5"/></defs><linearGradient id="SVGID_2_" x1="884.319" x2="33.69" y1="-243.6" y2="-243.6" gradientUnits="userSpaceOnUse"><stop offset="0" style="stop-color:#282560"/><stop offset=".039" style="stop-color:#292b65"/><stop offset=".4" style="stop-color:#336391"/><stop offset=".69" style="stop-color:#3991bd"/><stop offset=".897" style="stop-color:#3ab2df"/><stop offset="1" style="stop-color:#38c2f1"/></linearGradient><use fill="url(#SVGID_2_)" overflow="visible" xlink:href="#SVGID_1_"/><clipPath id="SVGID_3_"><use overflow="visible" xlink:href="#SVGID_1_"/></clipPath><polygon fill="#F1F2F2" points="1011.418 27.372 1034.326 -490.926 727.099 -447.284" clip-path="url(#SVGID_3_)" opacity=".2"/><polygon fill="#D1D3D4" points="1011.418 27.372 727.099 -447.284 335.85 4.706" clip-path="url(#SVGID_3_)" opacity=".2"/><polygon fill="#F1F2F2" points="335.85 4.706 727.099 -447.284 282.219 -490.926" clip-path="url(#SVGID_3_)" opacity=".2"/><polygon fill="#D1D3D4" points="335.85 4.706 282.219 -490.926 -44.773 -80.326" clip-path="url(#SVGID_3_)" opacity=".2"/></g><g opacity=".5"><defs><path id="SVGID_4_" d="M0,254.688c53.596-25.168,141.735-79.953,436.095,12.898 c167.967,52.982,390.814,67.33,481.125-24.814V25.389C382.877-58.803,0,93.365,0,93.365V254.688z" opacity=".5"/></defs><linearGradient id="SVGID_5_" x1="906.023" x2="7.38" y1="154.836" y2="154.836" gradientUnits="userSpaceOnUse"><stop offset="0" style="stop-color:#282560"/><stop offset=".039" style="stop-color:#292b65"/><stop offset=".4" style="stop-color:#336391"/><stop offset=".69" style="stop-color:#3991bd"/><stop offset=".897" style="stop-color:#3ab2df"/><stop offset="1" style="stop-color:#38c2f1"/></linearGradient><use fill="url(#SVGID_5_)" overflow="visible" xlink:href="#SVGID_4_"/><clipPath id="SVGID_6_"><use overflow="visible" xlink:href="#SVGID_4_"/></clipPath><polygon fill="#F1F2F2" points="-37.631 488.428 223.776 -146.91 -325.136 190.342" clip-path="url(#SVGID_6_)" opacity=".2"/><polygon fill="#E6E7E8" points="-37.631 488.428 223.776 -146.91 659.144 370.193" clip-path="url(#SVGID_6_)" opacity=".2"/><polygon fill="#D1D3D4" points="659.144 370.193 223.776 -146.91 556.119 -257.014" clip-path="url(#SVGID_6_)" opacity=".2"/><polygon fill="#F1F2F2" points="659.144 370.193 556.119 -257.014 963.311 471.703" clip-path="url(#SVGID_6_)" opacity=".2"/><polygon fill="#E6E7E8" points="963.311 471.703 556.119 -257.014 1240.301 151.143" clip-path="url(#SVGID_6_)" opacity=".2"/></g><g opacity=".5"><defs><path id="SVGID_7_" d="M918.13,371.419c-52.423-5.603-105.16-5.622-158.856,8.391 c-140.614,36.693-260.028,97.864-410.132,92.547c-57.218-2.027-218.994-37.567-348.078-33.564l-0.003,67.763 c131.203,18.393,257.806,73.352,396.08,82.771c87.906,5.989,177.179-45.958,252.835-84.014 c89.828-45.184,154.404-66.832,255.161-72.476c4.456-0.25,8.914-0.501,13.373-0.751L918.13,371.419z" opacity=".5"/></defs><linearGradient id="SVGID_8_" x1="1.06" x2="918.51" y1="478.856" y2="478.856" gradientUnits="userSpaceOnUse"><stop offset="0" style="stop-color:#282560"/><stop offset=".039" style="stop-color:#292b65"/><stop offset=".4" style="stop-color:#336391"/><stop offset=".69" style="stop-color:#3991bd"/><stop offset=".897" style="stop-color:#3ab2df"/><stop offset="1" style="stop-color:#38c2f1"/></linearGradient><use fill="url(#SVGID_8_)" overflow="visible" xlink:href="#SVGID_7_"/><clipPath id="SVGID_9_"><use overflow="visible" xlink:href="#SVGID_7_"/></clipPath><polygon fill="#F1F2F2" points="801.562 589.801 662.744 237.895 1087.371 349.136" clip-path="url(#SVGID_9_)" opacity=".2"/><polygon fill="#E6E7E8" points="801.562 589.801 662.744 237.895 328.511 635.461" clip-path="url(#SVGID_9_)" opacity=".2"/><polygon fill="#D1D3D4" points="328.511 635.461 662.744 237.895 219.353 294.242" clip-path="url(#SVGID_9_)" opacity=".2"/><polygon fill="#F1F2F2" points="328.511 635.461 219.353 294.242 29.719 635.461" clip-path="url(#SVGID_9_)" opacity=".2"/><polygon fill="#E6E7E8" points="29.719 635.461 219.353 294.242 -120.612 464.551" clip-path="url(#SVGID_9_)" opacity=".2"/></g></svg>