<svg xmlns="http://www.w3.org/2000/svg" xmlns:xlink="http://www.w3.org/1999/xlink" id="Layer_1" width="1024" height="1024" x="0" y="0" enable-background="new 0 0 1024 1024" version="1.1" viewBox="0 0 1024 1024" xml:space="preserve"><g id="BG_3_"><g id="Flat_Moons_1_"><ellipse cx="602.941" cy="762.414" fill="#7E7165" rx="4.255" ry="4.189"/><ellipse cx="298.34" cy="337.502" fill="#7E7165" rx="4.254" ry="4.189"/><path fill="#7E7165" d="M959.233,828.598c0-2.312,1.904-4.188,4.254-4.188s4.256,1.875,4.256,4.188 c0,2.316-1.906,4.191-4.256,4.191S959.233,830.914,959.233,828.598z"/><ellipse cx="946.392" cy="791.883" fill="#7E7165" rx="4.253" ry="4.188"/><path fill="#7E7165" d="M970.113,347.812c0-2.314,1.903-4.189,4.253-4.189c2.351,0,4.255,1.875,4.255,4.189 c0,2.311-1.904,4.188-4.255,4.188C972.016,352,970.113,350.123,970.113,347.812z"/><ellipse cx="601.387" cy="263.666" fill="#7E7165" rx="4.254" ry="4.189"/><ellipse cx="139.825" cy="516.27" fill="#7E7165" rx="9.498" ry="9.35"/><ellipse cx="553.21" cy="193.289" fill="#7E7165" rx="9.497" ry="9.35"/><path fill="#7E7165" d="M203.196,825.137c0-5.162,4.251-9.346,9.497-9.346c5.247,0,9.499,4.184,9.499,9.346 c0,5.166-4.251,9.354-9.499,9.354C207.447,834.49,203.196,830.303,203.196,825.137z"/><ellipse cx="320.098" cy="658.379" fill="#7E7165" rx="9.497" ry="9.352"/><path fill="#7E7165" d="M706.892,473.26c0-5.162,4.25-9.348,9.497-9.348c5.246,0,9.497,4.186,9.497,9.348 c0,5.166-4.251,9.352-9.497,9.352C711.142,482.611,706.892,478.426,706.892,473.26z"/><path fill="#7E7165" d="M54.051,389.08c0-9.746,8.022-17.641,17.918-17.641c9.897,0,17.922,7.895,17.922,17.641 c0,9.74-8.024,17.639-17.922,17.639C62.073,406.719,54.051,398.82,54.051,389.08z"/></g><g><defs><ellipse id="SVGID_45_" cx="336.355" cy="251.701" rx="30.87" ry="30.387"/></defs><clipPath id="SVGID_2_"><use overflow="visible" xlink:href="#SVGID_45_"/></clipPath><polygon fill="#E0B553" points="330.945 286.23 324.969 292.686 329.188 295.939 335.018 292.043" clip-path="url(#SVGID_2_)"/><polygon fill="#46442D" points="347.77 217.602 392.008 234.916 360.428 275.736" clip-path="url(#SVGID_2_)"/><polygon fill="#6B6331" points="355.716 195.369 347.77 217.602 392.008 234.916" clip-path="url(#SVGID_2_)"/><path fill="#47452B" d="M301.249,208.131" clip-path="url(#SVGID_2_)"/><polygon fill="#47452B" points="347.77 217.602 303.501 259.699 301.249 208.131" clip-path="url(#SVGID_2_)"/><polygon fill="#26322C" points="303.501 259.699 347.77 217.602 360.428 275.736" clip-path="url(#SVGID_2_)"/><polygon fill="#26322C" points="301.249 208.131 285.773 257.125 303.501 259.699" clip-path="url(#SVGID_2_)"/><line x1="355.716" x2="347.77" y1="195.369" y2="217.602" fill="#736D2E" clip-path="url(#SVGID_2_)"/><polygon fill="#292F32" points="392.008 234.916 370.698 292.939 360.428 275.736" clip-path="url(#SVGID_2_)"/><path fill="#0B132D" d="M304.798,267.941" clip-path="url(#SVGID_2_)"/><polygon fill="#0B132D" points="285.773 257.125 303.501 259.699 323.617 298.957" clip-path="url(#SVGID_2_)"/><g clip-path="url(#SVGID_2_)"><g><path fill="#0B132D" d="M334.29,286.704c0.858,0,2.002-1.303,0.696-1.303C334.128,285.401,332.983,286.704,334.29,286.704 L334.29,286.704z"/></g></g><polygon fill="#0D1225" points="303.501 259.699 360.428 275.736 323.617 298.957" clip-path="url(#SVGID_2_)"/><polygon fill="#0D1321" points="360.428 275.736 370.698 292.939 323.617 298.957" clip-path="url(#SVGID_2_)"/><line x1="325.611" x2="301.193" y1="213.129" y2="208.186" fill="#8E8239" clip-path="url(#SVGID_2_)"/><polygon fill="#7E7165" points="347.823 217.881 392.059 235.197 360.48 276.016" clip-path="url(#SVGID_2_)"/><polygon fill="#837F84" points="355.766 195.65 347.823 217.881 392.059 235.197" clip-path="url(#SVGID_2_)"/><path fill="#47452B" d="M301.303,208.41" clip-path="url(#SVGID_2_)"/><polygon fill="#DBCAC5" points="347.823 217.881 303.555 259.977 301.303 208.41" clip-path="url(#SVGID_2_)"/><path fill="#26322C" d="M360.48,276.016" clip-path="url(#SVGID_2_)"/><polygon fill="#695B48" points="303.555 259.977 347.823 217.881 360.48 276.016" clip-path="url(#SVGID_2_)"/><polygon fill="#DECEC0" points="301.303 208.41 285.826 257.402 303.555 259.977" clip-path="url(#SVGID_2_)"/><polygon fill="#D1C4C8" points="301.303 208.41 326.419 200.805 355.766 195.65 347.823 217.881" clip-path="url(#SVGID_2_)"/><polygon fill="#3F3A2F" points="392.059 235.197 389.928 265.1 370.753 293.223 360.48 276.016" clip-path="url(#SVGID_2_)"/><path fill="#0B132D" d="M304.851,268.221" clip-path="url(#SVGID_2_)"/><polygon fill="#8A786A" points="285.773 257.125 303.501 259.699 323.617 298.957" clip-path="url(#SVGID_2_)"/><g clip-path="url(#SVGID_2_)"><g><path fill="#0B132D" d="M334.345,286.983c0.858,0,2.002-1.303,0.696-1.303C334.184,285.681,333.039,286.983,334.345,286.983 L334.345,286.983z"/></g></g><polygon fill="#4F423F" points="303.555 259.977 360.48 276.016 349.521 286.521 343.832 292.225 323.672 299.236" clip-path="url(#SVGID_2_)"/><polygon fill="#675E5C" points="360.689 275.74 370.753 293.223 322.986 299.463 343.848 292.041 349.271 286.379" clip-path="url(#SVGID_2_)"/><line x1="325.665" x2="301.246" y1="213.408" y2="208.467" fill="#8E8239" clip-path="url(#SVGID_2_)"/><polygon fill="#C5B3B2" points="285.714 257.268 289.022 230.654 302.522 234.885" clip-path="url(#SVGID_2_)"/><polygon fill="#FFFBF6" points="289.022 230.654 301.32 208.092 302.487 235.109" clip-path="url(#SVGID_2_)"/><polygon fill="#494139" points="389.928 265.1 360.617 275.648 370.768 293.258" clip-path="url(#SVGID_2_)"/><polygon fill="#85796B" points="303.585 259.977 330.827 261.385 323.292 269.338" clip-path="url(#SVGID_2_)"/><polygon fill="#FFFAEC" points="316.496 211.508 324.252 240.35 347.854 217.803" clip-path="url(#SVGID_2_)"/><polygon fill="#E8D9D5" points="301.32 208.092 316.496 211.508 320.259 225.121" clip-path="url(#SVGID_2_)"/><g clip-path="url(#SVGID_2_)"><g><path fill="#5B622B" d="M323.719,231.217c0.595,0,2.098-0.902,0.804-0.902C323.928,230.314,322.425,231.217,323.719,231.217 L323.719,231.217z"/></g></g><polygon fill="#C3B9BC" points="316.496 211.508 328.11 208.145 347.854 217.803" clip-path="url(#SVGID_2_)"/><path fill="#32311A" d="M301.021,208.074" clip-path="url(#SVGID_2_)"/><path fill="#38371F" d="M301.32,208.092" clip-path="url(#SVGID_2_)"/><polygon fill="#E0D6DE" points="301.021 208.074 329.788 197.652 328.11 208.145" clip-path="url(#SVGID_2_)"/><polygon fill="#A8B4A1" points="355.858 195.35 329.788 197.652 329.33 200.789" clip-path="url(#SVGID_2_)"/><polygon fill="#988D95" points="352.411 204.787 356.072 195.295 329.204 200.859" clip-path="url(#SVGID_2_)"/><polygon fill="#ADBBB6" points="355.858 195.35 377.7 212.307 368.702 214.396" clip-path="url(#SVGID_2_)"/><polygon fill="#A2A5A7" points="391.813 234.848 377.588 212.111 368.702 214.396" clip-path="url(#SVGID_2_)"/><polygon fill="#AB9FA8" points="323.37 299.455 302.138 284.775 304.729 278.324" clip-path="url(#SVGID_2_)"/><polygon fill="#BDAFB9" points="304.729 278.324 316.973 286.621 323.37 299.455" clip-path="url(#SVGID_2_)"/><polygon fill="#77655E" points="302.138 284.775 299.218 272.215 304.729 278.324" clip-path="url(#SVGID_2_)"/><polygon fill="#849391" points="323.37 299.455 330.502 301.463 332.119 297.988" clip-path="url(#SVGID_2_)"/><polygon fill="#8F888F" points="285.509 256.635 299.17 271.498 301.987 284.211" clip-path="url(#SVGID_2_)"/><polygon fill="#B2A9B0" points="328.107 296.01 342.746 299.861 330.502 301.463" clip-path="url(#SVGID_2_)"/><polygon fill="#FFEDCE" points="370.768 293.258 342.746 299.861 344.516 296.434" clip-path="url(#SVGID_2_)"/><polygon fill="#867D83" points="328.788 296.656 334.81 290.256 342.746 299.861" clip-path="url(#SVGID_2_)"/><polygon fill="#847A69" points="360.428 275.736 357.059 260.221 354.125 271.457" clip-path="url(#SVGID_2_)"/><polygon fill="#514738" points="357.059 260.221 378.371 252.926 360.428 275.736" clip-path="url(#SVGID_2_)"/><polygon fill="#4C4235" points="392.059 235.197 379.109 255.775 360.428 275.736" clip-path="url(#SVGID_2_)"/><polygon fill="#CED0C5" points="352.411 204.787 362.191 223.541 347.697 217.83" clip-path="url(#SVGID_2_)"/><polygon fill="#C3C6C5" points="347.586 217.814 368.702 214.396 392.246 235.348" clip-path="url(#SVGID_2_)"/><polygon fill="#3C3828" points="389.928 265.1 379.109 255.775 360.428 275.736" clip-path="url(#SVGID_2_)"/><polygon fill="#887F86" points="352.631 239.975 392.246 235.348 347.823 217.881" clip-path="url(#SVGID_2_)"/><path fill="#26322C" d="M351.691,301.5" clip-path="url(#SVGID_2_)"/><polygon fill="#978E98" points="343.773 292.104 345.867 299.279 342.531 299.852 337.36 296.119 337.743 292.066" clip-path="url(#SVGID_2_)"/><polygon fill="#87807E" points="337.743 292.066 337.25 296.186 330.984 286.246" clip-path="url(#SVGID_2_)"/><polygon fill="#938374" points="323.776 277.914 327.331 281.523 331.246 276.623 323.385 276.061" clip-path="url(#SVGID_2_)"/><polygon fill="#463A2D" points="333.512 276.773 341.254 274.129 340.689 264.34" clip-path="url(#SVGID_2_)"/><polygon fill="#5F5447" points="341.254 274.129 346.553 275.658 340.689 264.377" clip-path="url(#SVGID_2_)"/><polygon fill="#52463A" points="323.292 269.338 330.827 261.385 340.689 264.34 333.775 276.889 323.385 276.061" clip-path="url(#SVGID_2_)"/><polygon fill="#887F85" points="330.973 286.275 343.828 292.104 337.743 292.066" clip-path="url(#SVGID_2_)"/><path fill="#26322C" d="M357.8,273.146" clip-path="url(#SVGID_2_)"/><polygon fill="#716453" points="357.124 260.494 354.15 271.596 346.332 275.594 340.651 264.58 339.527 260.795" clip-path="url(#SVGID_2_)"/><polygon fill="#85796F" points="339.527 260.795 330.827 261.385 330.661 253.205" clip-path="url(#SVGID_2_)"/><polygon fill="#9E9188" points="325.89 246.986 330.93 240.615 334.335 240.91 330.661 253.205" clip-path="url(#SVGID_2_)"/><polygon fill="#A9A198" points="320.101 240.262 325.89 246.986 331.019 240.568 320.722 239.834" clip-path="url(#SVGID_2_)"/><polyline fill="#978776" points="320.603 231.023 347.62 217.953 334.335 240.91 320.722 239.834 320.512 230.562" clip-path="url(#SVGID_2_)"/><polygon fill="#968776" points="330.661 253.205 347.501 260.842 339.527 260.795" clip-path="url(#SVGID_2_)"/><polygon fill="#7C6D62" points="323.385 276.061 303.566 259.971 323.292 269.338" clip-path="url(#SVGID_2_)"/><polygon fill="#B6A790" points="323.776 277.914 317.337 286.842 303.566 259.971 323.505 275.932" clip-path="url(#SVGID_2_)"/><polygon fill="#C5B6AD" points="330.786 240.809 320.259 225.121 303.048 246.039" clip-path="url(#SVGID_2_)"/><polygon fill="#9A8A7B" points="330.93 240.615 325.89 246.986 303.048 246.039" clip-path="url(#SVGID_2_)"/><polygon fill="#7C6B5B" points="303.048 246.039 330.827 261.385 330.661 253.205 325.89 246.986" clip-path="url(#SVGID_2_)"/><polygon fill="#BFAF9E" points="320.259 225.121 302.487 235.109 301.555 222.439" clip-path="url(#SVGID_2_)"/><polygon fill="#B9AA9B" points="334.335 240.91 352.631 239.975 330.661 253.205" clip-path="url(#SVGID_2_)"/><polygon fill="#948577" points="347.501 260.842 357.124 260.494 352.631 239.975" clip-path="url(#SVGID_2_)"/><polygon fill="#463A2D" points="346.553 275.658 360.428 275.736 354.15 271.322" clip-path="url(#SVGID_2_)"/><polygon fill="#71676A" points="341.254 274.129 343.828 292.104 346.553 275.658" clip-path="url(#SVGID_2_)"/><polygon fill="#5B4D3D" points="343.832 292.225 333.775 276.889 331.179 276.66 327.331 281.523 330.973 286.275 330.981 286.246" clip-path="url(#SVGID_2_)"/><polygon fill="#716A5E" points="377.785 253.471 352.631 239.975 393.186 234.783" clip-path="url(#SVGID_2_)"/><polygon fill="#8D7F89" points="325.441 305.266 316.973 286.621 329.913 296.961" clip-path="url(#SVGID_2_)"/></g></g></svg>