<svg xmlns="http://www.w3.org/2000/svg" xmlns:xlink="http://www.w3.org/1999/xlink" id="Layer_1" width="1024" height="1024" x="0" y="0" enable-background="new 0 0 1024 1024" version="1.1" viewBox="0 0 1024 1024" xml:space="preserve"><g id="BG_4_"><circle cx="313.039" cy="601.57" r="9.434" fill="#7E7165"/><circle cx="279.598" cy="292.387" r="4.227" fill="#7E7165"/><circle cx="301.139" cy="337.975" r="4.226" fill="#7E7165"/><circle cx="70.229" cy="569.922" r="4.226" fill="#7E7165"/><circle cx="347.765" cy="803.637" r="4.226" fill="#7E7165"/><circle cx="184.009" cy="694.082" r="4.226" fill="#7E7165"/><circle cx="736.646" cy="789.67" r="4.226" fill="#7E7165"/><circle cx="602.169" cy="263.471" r="4.226" fill="#7E7165"/><circle cx="143.679" cy="518.359" r="9.434" fill="#7E7165"/><circle cx="554.312" cy="204.107" r="9.434" fill="#7E7165"/><path fill="#7E7165" d="M766.164,523.664c0-5.209,4.223-9.434,9.434-9.434c5.21,0,9.436,4.225,9.436,9.434 c0,5.213-4.226,9.436-9.436,9.436C770.387,533.1,766.164,528.877,766.164,523.664z"/><circle cx="758.861" cy="326.471" r="9.434" fill="#7E7165"/></g></svg>