<svg xmlns="http://www.w3.org/2000/svg" xmlns:xlink="http://www.w3.org/1999/xlink" id="Layer_1" width="1024" height="1024" x="0" y="0" enable-background="new 0 0 1024 1024" version="1.1" viewBox="0 0 1024 1024" xml:space="preserve"><rect width="4781.037" height="2764.835" x="-3267.122" y="-1389.835" display="none"/><g id="Venus"><defs><circle id="SVGID_7_" cx="517.27" cy="514.449" r="158.399"/></defs><clipPath id="SVGID_2_"><use overflow="visible" xlink:href="#SVGID_7_"/></clipPath><circle cx="517.27" cy="514.449" r="158.399" fill="#E89624" clip-path="url(#SVGID_2_)"/><polygon fill="#FBB03A" points="517.344 402.006 681.207 423.268 610.756 590.033 585.752 538.428" clip-path="url(#SVGID_2_)"/><polygon fill="#FFCE49" points="523.526 321.25 517.344 402.006 681.207 423.268" clip-path="url(#SVGID_2_)"/><polygon fill="#C17129" points="517.344 402.006 463.681 506.17 411.585 581.035 372.024 508.354 350.646 406.211" clip-path="url(#SVGID_2_)"/><polygon fill="#E89624" points="411.125 574.02 457.671 499.355 517.344 402.006 585.752 538.428 610.756 590.033" clip-path="url(#SVGID_2_)"/><polygon fill="#A4742A" points="352.629 410.092 347.53 610.359 411.125 574.02 379.528 500.047" clip-path="url(#SVGID_2_)"/><polygon fill="#F6AA37" points="352.629 410.092 526.125 344.02 517.344 402.006" clip-path="url(#SVGID_2_)"/><polygon fill="#ED8E22" points="681.207 423.268 700.241 527.225 660.423 639.805 610.756 590.033" clip-path="url(#SVGID_2_)"/><polygon fill="#9D6627" points="343.531 590.76 411.125 574.02 446.89 631.291 507.425 700.955" clip-path="url(#SVGID_2_)"/><polygon fill="#C28B2D" points="411.125 574.02 626.865 584.945 507.425 700.955 471.385 663.49 445.396 631.635" clip-path="url(#SVGID_2_)"/><polygon fill="#B4742A" points="610.756 590.033 660.423 639.805 507.425 700.955 552.341 651.561" clip-path="url(#SVGID_2_)"/><polygon fill="#B0792B" points="343.531 590.76 330.836 496.645 379.528 500.047" clip-path="url(#SVGID_2_)"/><polygon fill="#A16E29" points="330.836 496.645 352.407 408.988 379.528 500.047" clip-path="url(#SVGID_2_)"/><polygon fill="#D78727" points="700.241 527.225 610.756 590.033 660.423 639.805" clip-path="url(#SVGID_2_)"/><polygon fill="#E29D31" points="411.125 574.02 497.545 566.992 610.756 590.033" clip-path="url(#SVGID_2_)"/><polygon fill="#FBB136" points="406.425 407.57 430.995 450.805 457.671 499.355 517.344 402.006" clip-path="url(#SVGID_2_)"/><polygon fill="#F6AA37" points="352.407 408.988 406.425 407.57 430.995 450.805" clip-path="url(#SVGID_2_)"/><polygon fill="#C47C2A" points="430.995 450.805 379.528 500.047 352.407 408.988" clip-path="url(#SVGID_2_)"/><polygon fill="#ED8E22" points="430.995 450.805 440.089 441.871 406.425 407.57" clip-path="url(#SVGID_2_)"/><polygon fill="#FFC549" points="440.089 441.871 517.344 402.006 406.425 407.57" clip-path="url(#SVGID_2_)"/><polygon fill="#FFCE49" points="440.089 441.871 478.35 465.604 430.995 450.805" clip-path="url(#SVGID_2_)"/><polygon fill="#F4A634" points="440.089 441.871 478.35 465.604 490.077 416.092" clip-path="url(#SVGID_2_)"/><polygon fill="#F39B27" points="406.425 407.57 442.526 386.057 517.344 402.006" clip-path="url(#SVGID_2_)"/><polygon fill="#FFCE49" points="406.425 407.57 352.407 408.988 442.526 386.057" clip-path="url(#SVGID_2_)"/><polygon fill="#CD7F29" points="352.407 408.988 438.96 348.775 442.526 386.057" clip-path="url(#SVGID_2_)"/><polygon fill="#DB6B27" points="523.526 321.25 438.96 348.775 437.17 360.93" clip-path="url(#SVGID_2_)"/><polygon fill="#F39726" points="442.526 386.057 437.17 360.93 522.315 343.502" clip-path="url(#SVGID_2_)"/><polygon fill="#FFC549" points="522.315 343.502 523.526 321.25 437.17 360.93" clip-path="url(#SVGID_2_)"/><polygon fill="#FFDA4D" points="523.526 321.25 612.872 357.498 584.457 372.389" clip-path="url(#SVGID_2_)"/><polygon fill="#F58723" points="681.207 423.268 612.325 356.92 584.457 372.389" clip-path="url(#SVGID_2_)"/><polygon fill="#8E5523" points="506.599 701.967 473.836 663.658 521.887 683.791" clip-path="url(#SVGID_2_)"/><polygon fill="#8E5523" points="506.599 701.967 422.368 670.148 425.423 645.893" clip-path="url(#SVGID_2_)"/><polygon fill="#A4742A" points="425.423 645.893 473.836 663.658 506.599 701.967" clip-path="url(#SVGID_2_)"/><polygon fill="#473321" points="422.368 670.148 401.527 629.781 425.423 645.893" clip-path="url(#SVGID_2_)"/><polygon fill="#8E5523" points="425.423 645.893 445.396 631.635 473.836 663.658" clip-path="url(#SVGID_2_)"/><polygon fill="#CE6C28" points="506.599 701.967 532.342 702.674 534.72 689.412" clip-path="url(#SVGID_2_)"/><polygon fill="#A76533" points="521.887 683.791 534.72 689.412 506.599 701.967" clip-path="url(#SVGID_2_)"/><polygon fill="#8C5D3A" points="343.531 590.76 401.527 629.781 422.368 670.148" clip-path="url(#SVGID_2_)"/><polygon fill="#6C451B" points="534.72 689.412 572.097 686.635 532.342 702.674" clip-path="url(#SVGID_2_)"/><polygon fill="#EC9C54" points="660.423 639.805 572.097 686.635 575.034 673.389" clip-path="url(#SVGID_2_)"/><polygon fill="#AE6E29" points="534.72 689.412 552.341 651.561 572.097 686.635" clip-path="url(#SVGID_2_)"/><polygon fill="#9D6627" points="575.034 673.389 552.341 651.561 572.097 686.635" clip-path="url(#SVGID_2_)"/><polygon fill="#A16E29" points="473.836 663.658 552.341 651.561 521.887 683.791" clip-path="url(#SVGID_2_)"/><polygon fill="#8E5523" points="521.887 683.791 534.72 689.412 552.341 651.561" clip-path="url(#SVGID_2_)"/><polygon fill="#CC7629" points="610.756 590.033 585.752 538.428 585.406 584.232" clip-path="url(#SVGID_2_)"/><polygon fill="#E47D25" points="681.207 423.268 655.69 504.717 610.756 590.033" clip-path="url(#SVGID_2_)"/><polygon fill="#F39B27" points="522.315 343.502 565.009 398.615 517.344 402.006" clip-path="url(#SVGID_2_)"/><polygon fill="#FBB136" points="584.457 372.389 522.315 343.502 523.526 321.25" clip-path="url(#SVGID_2_)"/><polygon fill="#F58723" points="517.344 402.006 565.009 398.615 588.489 398.146 683.445 425.785" clip-path="url(#SVGID_2_)"/><polygon fill="#F9A22D" points="588.489 398.146 584.457 372.389 565.009 398.615" clip-path="url(#SVGID_2_)"/><polygon fill="#F6AA37" points="700.241 527.225 655.69 504.717 610.756 590.033" clip-path="url(#SVGID_2_)"/><polygon fill="#ED8E22" points="497.545 566.992 517.344 402.006 457.671 499.355" clip-path="url(#SVGID_2_)"/><polygon fill="#DA8427" points="585.752 538.428 585.406 584.232 497.545 566.992" clip-path="url(#SVGID_2_)"/><polygon fill="#FFCE49" points="517.344 402.006 655.493 454.289 610.756 590.033 585.752 538.428" clip-path="url(#SVGID_2_)"/><polygon fill="#ED8E22" points="585.752 538.428 681.207 423.268 610.756 590.033" clip-path="url(#SVGID_2_)"/></g></svg>