<svg xmlns="http://www.w3.org/2000/svg" xmlns:xlink="http://www.w3.org/1999/xlink" id="Layer_1" width="1024" height="1024" x="0" y="0" enable-background="new 0 0 1024 1024" version="1.1" viewBox="0 0 1024 1024" xml:space="preserve"><rect width="4781.037" height="2764.835" x="-35.61" y="-2471.335" display="none"/><g id="FG_4_"><g><defs><circle id="SVGID_47_" cx="878.723" cy="367.285" r="45.088"/></defs><clipPath id="SVGID_2_"><use overflow="visible" xlink:href="#SVGID_47_"/></clipPath><polygon fill="#E0B553" points="891.627 311.445 899.535 302.771 893.956 298.398 886.243 303.631" clip-path="url(#SVGID_2_)"/><polygon fill="#46442D" points="869.372 403.672 810.852 380.402 852.627 325.547" clip-path="url(#SVGID_2_)"/><polygon fill="#6B6331" points="858.865 433.543 869.372 403.672 810.852 380.402" clip-path="url(#SVGID_2_)"/><path fill="#47452B" d="M930.913,416.396" clip-path="url(#SVGID_2_)"/><polygon fill="#47452B" points="869.372 403.672 927.935 347.102 930.913 416.396" clip-path="url(#SVGID_2_)"/><polygon fill="#26322C" points="927.935 347.102 869.372 403.672 852.627 325.547" clip-path="url(#SVGID_2_)"/><polygon fill="#26322C" points="930.913 416.396 951.389 350.559 927.935 347.102" clip-path="url(#SVGID_2_)"/><line x1="858.865" x2="869.372" y1="433.543" y2="403.672" fill="#736D2E" clip-path="url(#SVGID_2_)"/><polygon fill="#292F32" points="810.852 380.402 839.04 302.428 852.627 325.547" clip-path="url(#SVGID_2_)"/><path fill="#0B132D" d="M926.223,336.021" clip-path="url(#SVGID_2_)"/><polygon fill="#0B132D" points="951.389 350.559 927.935 347.102 901.322 294.346" clip-path="url(#SVGID_2_)"/><g clip-path="url(#SVGID_2_)"><g><path fill="#0B132D" d="M886.12,312.083c0.412,0,2.204-0.803,1.249-0.803C886.957,311.28,885.165,312.083,886.12,312.083 L886.12,312.083z"/></g></g><polygon fill="#0D1225" points="927.935 347.102 852.627 325.547 901.322 294.346" clip-path="url(#SVGID_2_)"/><polygon fill="#0D1321" points="852.627 325.547 839.04 302.428 901.322 294.346" clip-path="url(#SVGID_2_)"/><line x1="898.689" x2="930.991" y1="409.676" y2="416.32" fill="#8E8239" clip-path="url(#SVGID_2_)"/><polygon fill="#D1BC9D" points="869.303 403.295 810.782 380.025 852.558 325.172" clip-path="url(#SVGID_2_)"/><polygon fill="#AEAFA5" points="858.794 433.166 869.303 403.295 810.782 380.025" clip-path="url(#SVGID_2_)"/><path fill="#47452B" d="M930.844,416.021" clip-path="url(#SVGID_2_)"/><polygon fill="#B59F7B" points="869.303 403.295 927.865 346.729 930.844 416.021" clip-path="url(#SVGID_2_)"/><path fill="#26322C" d="M852.558,325.172" clip-path="url(#SVGID_2_)"/><polygon fill="#B69C74" points="927.865 346.729 869.303 403.295 852.558 325.172" clip-path="url(#SVGID_2_)"/><polygon fill="#9B735F" points="930.844 416.021 951.318 350.184 927.865 346.729" clip-path="url(#SVGID_2_)"/><polygon fill="#C5C6A0" points="930.844 416.021 897.62 426.24 858.794 433.166 869.303 403.295" clip-path="url(#SVGID_2_)"/><polygon fill="#97969B" points="810.782 380.025 813.602 339.84 838.97 302.049 852.558 325.172" clip-path="url(#SVGID_2_)"/><path fill="#0B132D" d="M926.152,335.645" clip-path="url(#SVGID_2_)"/><polygon fill="#85674D" points="951.389 350.559 927.935 347.102 901.322 294.346" clip-path="url(#SVGID_2_)"/><g clip-path="url(#SVGID_2_)"><g><path fill="#0B132D" d="M886.296,311.836c0.697,0,2.066-1.059,0.762-1.059C886.36,310.777,884.991,311.836,886.296,311.836 L886.296,311.836z"/></g></g><polygon fill="#BD9D76" points="927.865 346.729 852.558 325.172 867.055 311.053 874.583 303.389 901.253 293.969" clip-path="url(#SVGID_2_)"/><polygon fill="#B4AC99" points="852.282 325.543 838.97 302.049 902.162 293.664 874.562 303.637 867.387 311.248" clip-path="url(#SVGID_2_)"/><line x1="898.616" x2="930.921" y1="409.303" y2="415.947" fill="#8E8239" clip-path="url(#SVGID_2_)"/><polygon fill="#A09D97" points="951.466 350.367 947.09 386.129 929.23 380.438" clip-path="url(#SVGID_2_)"/><polygon fill="#C7C2B5" points="947.09 386.129 930.822 416.447 929.272 380.143" clip-path="url(#SVGID_2_)"/><polygon fill="#B3B4AD" points="813.602 339.84 852.374 325.666 838.948 302" clip-path="url(#SVGID_2_)"/><polygon fill="#97724A" points="927.825 346.729 891.789 344.83 901.756 334.145" clip-path="url(#SVGID_2_)"/><polygon fill="#FFFAEC" points="910.743 411.855 900.486 373.102 869.266 403.4" clip-path="url(#SVGID_2_)"/><polygon fill="#D0C6AB" points="930.822 416.447 910.743 411.855 905.769 393.566" clip-path="url(#SVGID_2_)"/><g clip-path="url(#SVGID_2_)"><g><path fill="#5B622B" d="M900.038,386.38c0.413,0,2.205-0.803,1.249-0.803C900.874,385.577,899.082,386.38,900.038,386.38 L900.038,386.38z"/></g></g><polygon fill="#CAC29A" points="910.743 411.855 895.377 416.377 869.266 403.4" clip-path="url(#SVGID_2_)"/><path fill="#32311A" d="M931.213,416.473" clip-path="url(#SVGID_2_)"/><path fill="#38371F" d="M930.822,416.447" clip-path="url(#SVGID_2_)"/><polygon fill="#ACB3AE" points="931.213 416.473 893.162 430.477 895.377 416.377" clip-path="url(#SVGID_2_)"/><polygon fill="#A8B4A1" points="858.671 433.568 893.162 430.477 893.77 426.264" clip-path="url(#SVGID_2_)"/><polygon fill="#92AC99" points="863.236 420.891 858.387 433.646 893.936 426.17" clip-path="url(#SVGID_2_)"/><polygon fill="#ADBBB6" points="858.671 433.568 829.778 410.783 841.68 407.975" clip-path="url(#SVGID_2_)"/><polygon fill="#A2A5A7" points="811.111 380.496 829.926 411.049 841.68 407.975" clip-path="url(#SVGID_2_)"/><polygon fill="#9C989B" points="901.652 293.672 929.739 313.4 926.308 322.068" clip-path="url(#SVGID_2_)"/><polygon fill="#B0ABA3" points="926.308 322.068 910.117 310.92 901.652 293.672" clip-path="url(#SVGID_2_)"/><polygon fill="#957259" points="929.739 313.4 933.604 330.279 926.308 322.068" clip-path="url(#SVGID_2_)"/><polygon fill="#849391" points="901.652 293.672 892.215 290.975 890.081 295.645" clip-path="url(#SVGID_2_)"/><polygon fill="#8F888F" points="951.736 351.219 933.666 331.244 929.943 314.158" clip-path="url(#SVGID_2_)"/><polygon fill="#8B998F" points="895.386 298.303 876.019 293.129 892.215 290.975" clip-path="url(#SVGID_2_)"/><polygon fill="#FFEDCE" points="838.948 302 876.019 293.129 873.678 297.736" clip-path="url(#SVGID_2_)"/><polygon fill="#B2AF9D" points="894.483 297.436 886.52 306.035 876.019 293.129" clip-path="url(#SVGID_2_)"/><polygon fill="#CDB797" points="852.627 325.547 857.086 346.4 860.962 331.301" clip-path="url(#SVGID_2_)"/><polygon fill="#AE9274" points="857.086 346.4 828.893 356.203 852.627 325.547" clip-path="url(#SVGID_2_)"/><polygon fill="#978067" points="810.782 380.025 827.918 352.369 852.627 325.547" clip-path="url(#SVGID_2_)"/><polygon fill="#CED0C5" points="863.236 420.891 850.296 395.686 869.471 403.363" clip-path="url(#SVGID_2_)"/><polygon fill="#C3C6C5" points="869.613 403.381 841.68 407.975 810.535 379.818" clip-path="url(#SVGID_2_)"/><polygon fill="#927873" points="813.602 339.84 827.918 352.369 852.627 325.547" clip-path="url(#SVGID_2_)"/><polygon fill="#C3B7A1" points="862.943 373.602 810.535 379.818 869.303 403.295" clip-path="url(#SVGID_2_)"/><path fill="#26322C" d="M864.184,290.928" clip-path="url(#SVGID_2_)"/><polygon fill="#A2A999" points="874.664 303.557 871.893 293.906 876.305 293.143 883.143 298.158 882.637 303.6" clip-path="url(#SVGID_2_)"/><polygon fill="#BFB59A" points="882.637 303.6 883.289 298.068 891.58 311.424" clip-path="url(#SVGID_2_)"/><polygon fill="#EBCBAB" points="901.112 322.615 896.414 317.77 891.233 324.355 901.634 325.109" clip-path="url(#SVGID_2_)"/><polygon fill="#BAA689" points="888.233 324.154 877.997 327.705 878.741 340.859" clip-path="url(#SVGID_2_)"/><polygon fill="#DEC382" points="877.997 327.705 870.985 325.65 878.741 340.814" clip-path="url(#SVGID_2_)"/><polygon fill="#B69169" points="901.756 334.145 891.789 344.83 878.741 340.859 887.885 324 901.634 325.109" clip-path="url(#SVGID_2_)"/><polygon fill="#C2AC8D" points="891.595 311.387 874.59 303.557 882.637 303.6" clip-path="url(#SVGID_2_)"/><path fill="#26322C" d="M856.103,329.029" clip-path="url(#SVGID_2_)"/><polygon fill="#B68E65" points="856.998 346.029 860.933 331.107 871.273 325.738 878.791 340.541 880.277 345.625" clip-path="url(#SVGID_2_)"/><polygon fill="#A9845B" points="880.277 345.625 891.789 344.83 892.007 355.824" clip-path="url(#SVGID_2_)"/><polygon fill="#D3AF76" points="898.318 364.182 891.651 372.744 887.146 372.346 892.007 355.824" clip-path="url(#SVGID_2_)"/><polygon fill="#A9A198" points="905.98 373.223 898.318 364.182 891.532 372.807 905.155 373.795" clip-path="url(#SVGID_2_)"/><polyline fill="#C8A87A" points="905.316 385.633 869.573 403.197 887.146 372.346 905.155 373.795 905.433 386.254" clip-path="url(#SVGID_2_)"/><polygon fill="#C5A77E" points="892.007 355.824 869.73 345.564 880.277 345.625" clip-path="url(#SVGID_2_)"/><polygon fill="#A68666" points="901.634 325.109 927.848 346.734 901.756 334.145" clip-path="url(#SVGID_2_)"/><polygon fill="#B6A790" points="901.112 322.615 909.632 310.623 927.848 346.734 901.472 325.285" clip-path="url(#SVGID_2_)"/><polygon fill="#B5946C" points="891.843 372.484 905.769 393.566 928.533 365.457" clip-path="url(#SVGID_2_)"/><polygon fill="#A6794E" points="891.651 372.744 898.318 364.182 928.533 365.457" clip-path="url(#SVGID_2_)"/><polygon fill="#C9AE8A" points="928.533 365.457 891.789 344.83 892.007 355.824 898.318 364.182" clip-path="url(#SVGID_2_)"/><polygon fill="#A47751" points="905.769 393.566 929.272 380.143 930.511 397.166" clip-path="url(#SVGID_2_)"/><polygon fill="#C4A678" points="887.146 372.346 862.943 373.602 892.007 355.824" clip-path="url(#SVGID_2_)"/><polygon fill="#DFCEAB" points="869.73 345.564 856.998 346.029 862.943 373.602" clip-path="url(#SVGID_2_)"/><polygon fill="#EAE2CB" points="870.985 325.65 852.627 325.547 860.933 331.48" clip-path="url(#SVGID_2_)"/><polygon fill="#777964" points="877.997 327.705 874.59 303.557 870.985 325.65" clip-path="url(#SVGID_2_)"/><polygon fill="#B6926A" points="874.583 303.389 887.885 324 891.322 324.305 896.414 317.77 891.595 311.387 891.583 311.424" clip-path="url(#SVGID_2_)"/><polygon fill="#B4A391" points="829.663 355.469 862.943 373.602 809.294 380.58" clip-path="url(#SVGID_2_)"/><polygon fill="#BBAE97" points="898.911 285.865 910.117 310.92 892.996 297.025" clip-path="url(#SVGID_2_)"/><linearGradient id="SVGID_4_" x1="563.459" x2="848.096" y1="-573.402" y2="-573.402" gradientTransform="matrix(0.9747 -0.2237 0.2237 0.9747 317.9941 1072.1465)" gradientUnits="userSpaceOnUse"><stop offset="0" style="stop-color:#26a9e0"/><stop offset=".222" style="stop-color:#297fc4"/><stop offset=".442" style="stop-color:#2b5dae"/><stop offset=".649" style="stop-color:#2d459e"/><stop offset=".841" style="stop-color:#2e3694"/><stop offset="1" style="stop-color:#2e3191"/></linearGradient><circle cx="877.645" cy="355.368" r="142.324" fill="url(#SVGID_4_)" clip-path="url(#SVGID_2_)" opacity=".4"/></g><g><defs><path id="SVGID_50_" d="M59.429,385.453c0-15.516,12.578-28.092,28.091-28.092c15.515,0,28.092,12.576,28.092,28.092 c0,15.512-12.577,28.09-28.092,28.09C72.007,413.543,59.429,400.965,59.429,385.453z"/></defs><clipPath id="SVGID_6_"><use overflow="visible" xlink:href="#SVGID_50_"/></clipPath><polygon fill="#E0B553" points="98.129 351.219 103.182 345.676 99.617 342.881 94.69 346.227" clip-path="url(#SVGID_6_)"/><polygon fill="#46442D" points="83.909 410.145 46.519 395.277 73.21 360.227" clip-path="url(#SVGID_6_)"/><polygon fill="#6B6331" points="77.194 429.232 83.909 410.145 46.519 395.277" clip-path="url(#SVGID_6_)"/><path fill="#47452B" d="M123.229,418.273" clip-path="url(#SVGID_6_)"/><polygon fill="#47452B" points="83.909 410.145 121.328 373.998 123.229 418.273" clip-path="url(#SVGID_6_)"/><polygon fill="#26322C" points="121.328 373.998 83.909 410.145 73.21 360.227" clip-path="url(#SVGID_6_)"/><polygon fill="#26322C" points="123.229 418.273 136.312 376.207 121.328 373.998" clip-path="url(#SVGID_6_)"/><line x1="77.194" x2="83.909" y1="429.232" y2="410.145" fill="#736D2E" clip-path="url(#SVGID_6_)"/><polygon fill="#292F32" points="46.519 395.277 64.528 345.455 73.21 360.227" clip-path="url(#SVGID_6_)"/><path fill="#0B132D" d="M120.232,366.918" clip-path="url(#SVGID_6_)"/><polygon fill="#0B132D" points="136.312 376.207 121.328 373.998 104.324 340.293" clip-path="url(#SVGID_6_)"/><g clip-path="url(#SVGID_6_)"><g><path fill="#0B132D" d="M94.658,352.008c0.842,0,2.01-1.277,0.703-1.277C94.52,350.73,93.352,352.008,94.658,352.008 L94.658,352.008z"/></g></g><polygon fill="#0D1225" points="121.328 373.998 73.21 360.227 104.324 340.293" clip-path="url(#SVGID_6_)"/><polygon fill="#0D1321" points="73.21 360.227 64.528 345.455 104.324 340.293" clip-path="url(#SVGID_6_)"/><line x1="102.641" x2="123.278" y1="413.98" y2="418.223" fill="#8E8239" clip-path="url(#SVGID_6_)"/><polygon fill="#7E7165" points="83.866 409.904 46.474 395.037 73.166 359.988" clip-path="url(#SVGID_6_)"/><polygon fill="#837F84" points="77.15 428.99 83.866 409.904 46.474 395.037" clip-path="url(#SVGID_6_)"/><path fill="#47452B" d="M123.188,418.035" clip-path="url(#SVGID_6_)"/><polygon fill="#DBCAC5" points="83.866 409.904 121.282 373.76 123.188 418.035" clip-path="url(#SVGID_6_)"/><path fill="#26322C" d="M73.166,359.988" clip-path="url(#SVGID_6_)"/><polygon fill="#695B48" points="121.282 373.76 83.866 409.904 73.166 359.988" clip-path="url(#SVGID_6_)"/><polygon fill="#DECEC0" points="123.188 418.035 136.269 375.971 121.282 373.76" clip-path="url(#SVGID_6_)"/><polygon fill="#D1C4C8" points="123.188 418.035 101.958 424.564 77.15 428.99 83.866 409.904" clip-path="url(#SVGID_6_)"/><polygon fill="#3F3A2F" points="46.474 395.037 48.275 369.361 64.483 345.215 73.166 359.988" clip-path="url(#SVGID_6_)"/><path fill="#0B132D" d="M120.188,366.68" clip-path="url(#SVGID_6_)"/><polygon fill="#8A786A" points="136.312 376.207 121.328 373.998 104.324 340.293" clip-path="url(#SVGID_6_)"/><g clip-path="url(#SVGID_6_)"><g><path fill="#0B132D" d="M94.58,351.647c0.681,0,2.071-1.033,0.768-1.033C94.667,350.614,93.276,351.647,94.58,351.647 L94.58,351.647z"/></g></g><polygon fill="#4F423F" points="121.282 373.76 73.166 359.988 82.43 350.967 87.238 346.07 104.277 340.053" clip-path="url(#SVGID_6_)"/><polygon fill="#675E5C" points="72.989 360.225 64.483 345.215 104.858 339.857 87.226 346.229 82.641 351.092" clip-path="url(#SVGID_6_)"/><line x1="102.595" x2="123.234" y1="413.742" y2="417.986" fill="#8E8239" clip-path="url(#SVGID_6_)"/><polygon fill="#C5B3B2" points="136.362 376.088 133.566 398.938 122.156 395.301" clip-path="url(#SVGID_6_)"/><polygon fill="#FFFBF6" points="133.566 398.938 123.172 418.309 122.182 395.109" clip-path="url(#SVGID_6_)"/><polygon fill="#494139" points="48.275 369.361 73.05 360.303 64.472 345.182" clip-path="url(#SVGID_6_)"/><polygon fill="#85796B" points="121.256 373.76 98.232 372.549 104.601 365.723" clip-path="url(#SVGID_6_)"/><polygon fill="#FFFAEC" points="110.344 415.375 103.789 390.611 83.842 409.971" clip-path="url(#SVGID_6_)"/><polygon fill="#E8D9D5" points="123.172 418.309 110.344 415.375 107.164 403.689" clip-path="url(#SVGID_6_)"/><g clip-path="url(#SVGID_6_)"><g><path fill="#5B622B" d="M103.276,399.238c0.409,0,2.203-0.797,1.25-0.797C104.117,398.441,102.323,399.238,103.276,399.238 L103.276,399.238z"/></g></g><polygon fill="#C3B9BC" points="110.344 415.375 100.526 418.264 83.842 409.971" clip-path="url(#SVGID_6_)"/><path fill="#32311A" d="M123.424,418.322" clip-path="url(#SVGID_6_)"/><path fill="#38371F" d="M123.172,418.309" clip-path="url(#SVGID_6_)"/><polygon fill="#E0D6DE" points="123.424 418.322 99.109 427.271 100.526 418.264" clip-path="url(#SVGID_6_)"/><polygon fill="#A8B4A1" points="77.072 429.248 99.109 427.271 99.498 424.58" clip-path="url(#SVGID_6_)"/><polygon fill="#988D95" points="79.987 421.145 76.894 429.295 99.604 424.518" clip-path="url(#SVGID_6_)"/><polygon fill="#ADBBB6" points="77.072 429.248 58.612 414.686 66.216 412.895" clip-path="url(#SVGID_6_)"/><polygon fill="#A2A5A7" points="46.683 395.336 58.705 414.857 66.216 412.895" clip-path="url(#SVGID_6_)"/><polygon fill="#AB9FA8" points="104.534 339.861 122.479 352.469 120.289 358.006" clip-path="url(#SVGID_6_)"/><polygon fill="#BDAFB9" points="120.289 358.006 109.942 350.883 104.534 339.861" clip-path="url(#SVGID_6_)"/><polygon fill="#77655E" points="122.479 352.469 124.951 363.252 120.289 358.006" clip-path="url(#SVGID_6_)"/><polygon fill="#849391" points="104.534 339.861 98.504 338.139 97.14 341.121" clip-path="url(#SVGID_6_)"/><polygon fill="#8F888F" points="136.535 376.631 124.99 363.867 122.61 352.951" clip-path="url(#SVGID_6_)"/><polygon fill="#B2A9B0" points="100.53 342.82 88.158 339.514 98.504 338.139" clip-path="url(#SVGID_6_)"/><polygon fill="#FFEDCE" points="64.472 345.182 88.158 339.514 86.66 342.459" clip-path="url(#SVGID_6_)"/><polygon fill="#867D83" points="99.954 342.268 94.865 347.76 88.158 339.514" clip-path="url(#SVGID_6_)"/><polygon fill="#847A69" points="73.21 360.227 76.061 373.551 78.537 363.902" clip-path="url(#SVGID_6_)"/><polygon fill="#514738" points="76.061 373.551 58.045 379.812 73.21 360.227" clip-path="url(#SVGID_6_)"/><polygon fill="#4C4235" points="46.474 395.037 57.423 377.367 73.21 360.227" clip-path="url(#SVGID_6_)"/><polygon fill="#CED0C5" points="79.987 421.145 71.721 405.043 83.972 409.945" clip-path="url(#SVGID_6_)"/><polygon fill="#C3C6C5" points="84.065 409.957 66.216 412.895 46.316 394.902" clip-path="url(#SVGID_6_)"/><polygon fill="#3C3828" points="48.275 369.361 57.423 377.367 73.21 360.227" clip-path="url(#SVGID_6_)"/><polygon fill="#887F86" points="79.803 390.934 46.316 394.902 83.866 409.904" clip-path="url(#SVGID_6_)"/><path fill="#26322C" d="M80.594,338.109" clip-path="url(#SVGID_6_)"/><polygon fill="#978E98" points="87.289 346.178 85.521 340.012 88.339 339.523 92.709 342.727 92.385 346.205" clip-path="url(#SVGID_6_)"/><polygon fill="#87807E" points="92.385 346.205 92.801 342.672 98.099 351.207" clip-path="url(#SVGID_6_)"/><polygon fill="#938374" points="104.19 358.357 101.187 355.258 97.876 359.467 104.521 359.949" clip-path="url(#SVGID_6_)"/><polygon fill="#463A2D" points="95.962 359.338 89.419 361.607 89.896 370.01" clip-path="url(#SVGID_6_)"/><polygon fill="#5F5447" points="89.419 361.607 84.939 360.295 89.896 369.982" clip-path="url(#SVGID_6_)"/><polygon fill="#52463A" points="104.601 365.723 98.232 372.549 89.896 370.01 95.737 359.24 104.521 359.949" clip-path="url(#SVGID_6_)"/><polygon fill="#887F85" points="98.108 351.18 87.242 346.176 92.385 346.205" clip-path="url(#SVGID_6_)"/><path fill="#26322C" d="M75.431,362.453" clip-path="url(#SVGID_6_)"/><polygon fill="#716453" points="76.003 373.316 78.518 363.779 85.126 360.35 89.925 369.809 90.876 373.055" clip-path="url(#SVGID_6_)"/><polygon fill="#85796F" points="90.876 373.055 98.232 372.549 98.372 379.572" clip-path="url(#SVGID_6_)"/><polygon fill="#9E9188" points="102.403 384.912 98.146 390.385 95.266 390.129 98.372 379.572" clip-path="url(#SVGID_6_)"/><polygon fill="#A9A198" points="107.3 390.689 102.403 384.912 98.067 390.426 106.772 391.055" clip-path="url(#SVGID_6_)"/><polyline fill="#978776" points="106.875 398.617 84.039 409.84 95.266 390.129 106.772 391.055 106.949 399.016" clip-path="url(#SVGID_6_)"/><polygon fill="#968776" points="98.372 379.572 84.138 373.02 90.876 373.055" clip-path="url(#SVGID_6_)"/><polygon fill="#7C6D62" points="104.521 359.949 121.271 373.766 104.601 365.723" clip-path="url(#SVGID_6_)"/><polygon fill="#B6A790" points="104.19 358.357 109.634 350.691 121.271 373.766 104.42 360.059" clip-path="url(#SVGID_6_)"/><polygon fill="#C5B6AD" points="98.268 390.217 107.164 403.689 121.709 385.729" clip-path="url(#SVGID_6_)"/><polygon fill="#9A8A7B" points="98.146 390.385 102.403 384.912 121.709 385.729" clip-path="url(#SVGID_6_)"/><polygon fill="#7C6B5B" points="121.709 385.729 98.232 372.549 98.372 379.572 102.403 384.912" clip-path="url(#SVGID_6_)"/><polygon fill="#BFAF9E" points="107.164 403.689 122.182 395.109 122.973 405.99" clip-path="url(#SVGID_6_)"/><polygon fill="#B9AA9B" points="95.266 390.129 79.803 390.934 98.372 379.572" clip-path="url(#SVGID_6_)"/><polygon fill="#948577" points="84.138 373.02 76.003 373.316 79.803 390.934" clip-path="url(#SVGID_6_)"/><polygon fill="#463A2D" points="84.939 360.295 73.21 360.227 78.518 364.018" clip-path="url(#SVGID_6_)"/><polygon fill="#71676A" points="89.419 361.607 87.242 346.176 84.939 360.295" clip-path="url(#SVGID_6_)"/><polygon fill="#5B4D3D" points="87.238 346.07 95.737 359.24 97.934 359.434 101.187 355.258 98.108 351.18 98.102 351.207" clip-path="url(#SVGID_6_)"/><polygon fill="#716A5E" points="58.539 379.344 79.803 390.934 45.524 395.391" clip-path="url(#SVGID_6_)"/><polygon fill="#8D7F89" points="102.782 334.875 109.942 350.883 99.003 342.006" clip-path="url(#SVGID_6_)"/><circle cx="98.191" cy="380.941" r="80.34" fill="#D8CEC5" clip-path="url(#SVGID_6_)" opacity=".3"/></g><circle cx="666.045" cy="681.91" r="17.801" fill="#7E7165"/><g><defs><path id="SVGID_52_" d="M814.175,813.193c-3.382-11.902,4.302-24.51,17.157-28.162c12.857-3.652,26.02,3.033,29.401,14.934 c3.38,11.898-4.302,24.506-17.16,28.158C830.719,831.775,817.555,825.09,814.175,813.193z"/></defs><clipPath id="SVGID_8_"><use overflow="visible" xlink:href="#SVGID_52_"/></clipPath><polygon fill="#E0B553" points="838.785 777.822 841.765 772.381 838.202 771.078 834.848 774.803" clip-path="url(#SVGID_8_)"/><polygon fill="#46442D" points="839.841 826.365 805.616 823.766 820.098 790.6" clip-path="url(#SVGID_8_)"/><polygon fill="#6B6331" points="838.436 842.586 839.841 826.365 805.616 823.766" clip-path="url(#SVGID_8_)"/><path fill="#47452B" d="M874.198,823.344" clip-path="url(#SVGID_8_)"/><polygon fill="#47452B" points="839.841 826.365 862.975 789.834 874.198 823.344" clip-path="url(#SVGID_8_)"/><polygon fill="#26322C" points="862.975 789.834 839.841 826.365 820.098 790.6" clip-path="url(#SVGID_8_)"/><polygon fill="#26322C" points="874.198 823.344 875.873 787.998 862.975 789.834" clip-path="url(#SVGID_8_)"/><line x1="838.436" x2="839.841" y1="842.586" y2="826.365" fill="#736D2E" clip-path="url(#SVGID_8_)"/><polygon fill="#292F32" points="805.616 823.766 809.684 781.312 820.098 790.6" clip-path="url(#SVGID_8_)"/><path fill="#0B132D" d="M860.524,784.66" clip-path="url(#SVGID_8_)"/><polygon fill="#0B132D" points="875.873 787.998 862.975 789.834 841.539 767.982" clip-path="url(#SVGID_8_)"/><g clip-path="url(#SVGID_8_)"><g><path fill="#0B132D" d="M835.612,779.087c0.43,0,2.21-0.83,1.241-0.83C836.423,778.257,834.644,779.087,835.612,779.087 L835.612,779.087z"/></g></g><polygon fill="#0D1225" points="862.975 789.834 820.098 790.6 841.539 767.982" clip-path="url(#SVGID_8_)"/><polygon fill="#0D1321" points="820.098 790.6 809.684 781.312 841.539 767.982" clip-path="url(#SVGID_8_)"/><line x1="856.201" x2="874.228" y1="824.898" y2="823.293" fill="#8E8239" clip-path="url(#SVGID_8_)"/><polygon fill="#7E7165" points="839.753 826.191 805.526 823.592 820.01 790.426" clip-path="url(#SVGID_8_)"/><polygon fill="#837F84" points="838.348 842.412 839.753 826.191 805.526 823.592" clip-path="url(#SVGID_8_)"/><path fill="#47452B" d="M874.111,823.17" clip-path="url(#SVGID_8_)"/><polygon fill="#DBCAC5" points="839.753 826.191 862.885 789.66 874.111 823.17" clip-path="url(#SVGID_8_)"/><path fill="#26322C" d="M820.01,790.426" clip-path="url(#SVGID_8_)"/><polygon fill="#695B48" points="862.885 789.66 839.753 826.191 820.01 790.426" clip-path="url(#SVGID_8_)"/><polygon fill="#DECEC0" points="874.111 823.17 875.785 787.828 862.885 789.66" clip-path="url(#SVGID_8_)"/><polygon fill="#D1C4C8" points="874.111 823.17 857.941 833.178 838.348 842.412 839.753 826.191" clip-path="url(#SVGID_8_)"/><polygon fill="#3F3A2F" points="805.526 823.592 801.424 803.475 809.595 781.139 820.01 790.426" clip-path="url(#SVGID_8_)"/><path fill="#0B132D" d="M860.436,784.488" clip-path="url(#SVGID_8_)"/><polygon fill="#8A786A" points="875.873 787.998 862.975 789.834 841.539 767.982" clip-path="url(#SVGID_8_)"/><g clip-path="url(#SVGID_8_)"><g><path fill="#0B132D" d="M835.798,779.158c0.867,0,1.998-1.316,0.692-1.316C835.624,777.842,834.492,779.158,835.798,779.158 L835.798,779.158z"/></g></g><polygon fill="#4F423F" points="862.885 789.66 820.01 790.426 825.721 781.326 828.639 776.438 841.448 767.811" clip-path="url(#SVGID_8_)"/><polygon fill="#675E5C" points="819.914 790.648 809.595 781.139 841.888 767.525 828.663 776.562 825.923 781.371" clip-path="url(#SVGID_8_)"/><line x1="856.11" x2="874.139" y1="824.727" y2="823.123" fill="#8E8239" clip-path="url(#SVGID_8_)"/><polygon fill="#C5B3B2" points="875.889 787.896 878.551 806.078 868.303 805.979" clip-path="url(#SVGID_8_)"/><polygon fill="#FFFBF6" points="878.551 806.078 874.158 823.383 868.282 805.824" clip-path="url(#SVGID_8_)"/><polygon fill="#494139" points="801.424 803.475 819.981 790.697 809.578 781.117" clip-path="url(#SVGID_8_)"/><polygon fill="#85796B" points="862.863 789.666 843.52 794.158 847.31 787.424" clip-path="url(#SVGID_8_)"/><polygon fill="#FFFAEC" points="862.887 824.154 852.06 806.705 839.747 826.248" clip-path="url(#SVGID_8_)"/><polygon fill="#E8D9D5" points="874.158 823.383 862.887 824.154 857.707 815.939" clip-path="url(#SVGID_8_)"/><g clip-path="url(#SVGID_8_)"><g><path fill="#5B622B" d="M853.848,813.654c1.072,0,1.51-1.328,0.195-1.328C852.971,812.326,852.533,813.654,853.848,813.654 L853.848,813.654z"/></g></g><polygon fill="#C3B9BC" points="862.887 824.154 855.381 828.682 839.747 826.248" clip-path="url(#SVGID_8_)"/><path fill="#32311A" d="M874.369,823.336" clip-path="url(#SVGID_8_)"/><path fill="#38371F" d="M874.158,823.383" clip-path="url(#SVGID_8_)"/><polygon fill="#E0D6DE" points="874.369 823.336 856.17 835.924 855.381 828.682" clip-path="url(#SVGID_8_)"/><polygon fill="#A8B4A1" points="838.338 842.629 856.17 835.924 855.905 833.768" clip-path="url(#SVGID_8_)"/><polygon fill="#988D95" points="838.989 835.727 838.201 842.707 855.98 833.695" clip-path="url(#SVGID_8_)"/><polygon fill="#ADBBB6" points="838.338 842.629 819.867 835.805 825.778 832.641" clip-path="url(#SVGID_8_)"/><polygon fill="#A2A5A7" points="805.765 823.773 819.981 835.914 825.778 832.641" clip-path="url(#SVGID_8_)"/><polygon fill="#AB9FA8" points="841.62 767.604 859.237 773.049 858.63 777.811" clip-path="url(#SVGID_8_)"/><polygon fill="#BDAFB9" points="858.63 777.811 848.502 774.783 841.62 767.604" clip-path="url(#SVGID_8_)"/><polygon fill="#77655E" points="859.237 773.049 863.636 780.738 858.63 777.811" clip-path="url(#SVGID_8_)"/><polygon fill="#849391" points="841.62 767.604 836.247 767.701 835.766 770.312" clip-path="url(#SVGID_8_)"/><polygon fill="#8F888F" points="876.15 788.273 863.802 781.201 859.451 773.389" clip-path="url(#SVGID_8_)"/><polygon fill="#B2A9B0" points="838.946 770.816 827.972 771.193 836.247 767.701" clip-path="url(#SVGID_8_)"/><polygon fill="#FFEDCE" points="809.578 781.117 827.972 771.193 827.373 773.805" clip-path="url(#SVGID_8_)"/><polygon fill="#867D83" points="838.348 770.527 835.327 775.938 827.972 771.193" clip-path="url(#SVGID_8_)"/><polygon fill="#847A69" points="820.098 790.6 825.364 800.148 825.313 792.164" clip-path="url(#SVGID_8_)"/><polygon fill="#514738" points="825.364 800.148 811.799 809.191 820.098 790.6" clip-path="url(#SVGID_8_)"/><polygon fill="#4C4235" points="805.526 823.592 810.749 807.463 820.098 790.6" clip-path="url(#SVGID_8_)"/><polygon fill="#CED0C5" points="838.989 835.727 828.63 825.324 839.85 826.199" clip-path="url(#SVGID_8_)"/><polygon fill="#C3C6C5" points="839.93 826.188 825.778 832.641 805.366 823.527" clip-path="url(#SVGID_8_)"/><polygon fill="#3C3828" points="801.424 803.475 810.749 807.463 820.098 790.6" clip-path="url(#SVGID_8_)"/><polygon fill="#887F86" points="832.253 812.598 805.366 823.527 839.753 826.191" clip-path="url(#SVGID_8_)"/><path fill="#26322C" d="M821.398,771.896" clip-path="url(#SVGID_8_)"/><polygon fill="#978E98" points="828.704 776.508 825.896 772.195 828.124 771.158 832.443 772.586 832.933 775.33" clip-path="url(#SVGID_8_)"/><polygon fill="#87807E" points="832.933 775.33 832.508 772.521 838.759 777.82" clip-path="url(#SVGID_8_)"/><polygon fill="#938374" points="845.364 781.871 842.199 780.201 840.373 784.209 845.986 783.014" clip-path="url(#SVGID_8_)"/><polygon fill="#463A2D" points="838.759 784.561 833.832 787.84 836.058 794.174" clip-path="url(#SVGID_8_)"/><polygon fill="#5F5447" points="833.832 787.84 829.833 787.891 836.052 794.154" clip-path="url(#SVGID_8_)"/><polygon fill="#52463A" points="847.31 787.424 843.52 794.158 836.058 794.174 838.552 784.539 845.986 783.014" clip-path="url(#SVGID_8_)"/><polygon fill="#887F85" points="838.76 777.799 828.665 776.518 832.933 775.33" clip-path="url(#SVGID_8_)"/><path fill="#26322C" d="M822.424,791.783" clip-path="url(#SVGID_8_)"/><polygon fill="#716453" points="825.265 799.982 825.271 792.074 829.999 787.889 836.037 794.014 837.533 796.279" clip-path="url(#SVGID_8_)"/><polygon fill="#85796F" points="837.533 796.279 843.52 794.158 845.165 799.514" clip-path="url(#SVGID_8_)"/><polygon fill="#9E9188" points="849.67 802.658 847.334 807.859 844.892 808.342 845.165 799.514" clip-path="url(#SVGID_8_)"/><polygon fill="#A9A198" points="854.985 805.938 849.67 802.658 847.278 807.908 854.629 806.342" clip-path="url(#SVGID_8_)"/><polyline fill="#978776" points="856.361 812.119 839.883 826.104 844.892 808.342 854.629 806.342 856.51 812.406" clip-path="url(#SVGID_8_)"/><polygon fill="#968776" points="845.165 799.514 831.94 797.838 837.533 796.279" clip-path="url(#SVGID_8_)"/><polygon fill="#7C6D62" points="845.986 783.014 862.877 789.666 847.31 787.424" clip-path="url(#SVGID_8_)"/><polygon fill="#B6A790" points="845.364 781.871 848.204 774.711 862.877 789.666 845.925 783.123" clip-path="url(#SVGID_8_)"/><polygon fill="#C5B6AD" points="847.398 807.703 857.707 815.939 865.847 798.738" clip-path="url(#SVGID_8_)"/><polygon fill="#9A8A7B" points="847.334 807.859 849.67 802.658 865.847 798.738" clip-path="url(#SVGID_8_)"/><polygon fill="#7C6B5B" points="865.847 798.738 843.52 794.158 845.165 799.514 849.67 802.658" clip-path="url(#SVGID_8_)"/><polygon fill="#BFAF9E" points="857.707 815.939 868.282 805.824 871.309 813.982" clip-path="url(#SVGID_8_)"/><polygon fill="#B9AA9B" points="844.892 808.342 832.253 812.598 845.165 799.514" clip-path="url(#SVGID_8_)"/><polygon fill="#948577" points="831.94 797.838 825.265 799.982 832.253 812.598" clip-path="url(#SVGID_8_)"/><polygon fill="#463A2D" points="829.833 787.891 820.098 790.6 825.322 792.258" clip-path="url(#SVGID_8_)"/><polygon fill="#71676A" points="833.832 787.84 828.665 776.518 829.833 787.891" clip-path="url(#SVGID_8_)"/><polygon fill="#5B4D3D" points="828.639 776.438 838.552 784.539 840.414 784.17 842.199 780.201 838.76 777.799 838.76 777.82" clip-path="url(#SVGID_8_)"/><polygon fill="#716A5E" points="812.104 808.717 832.253 812.598 804.815 824.086" clip-path="url(#SVGID_8_)"/><polygon fill="#8D7F89" points="839.081 764.191 848.502 774.783 837.502 770.551" clip-path="url(#SVGID_8_)"/><ellipse cx="845.314" cy="800.605" fill="#D8CEC5" clip-path="url(#SVGID_8_)" opacity=".3" rx="69.213" ry="64.057" transform="matrix(0.9619 -0.2733 0.2733 0.9619 -186.6082 261.4751)"/></g></g></svg>