<svg xmlns="http://www.w3.org/2000/svg" xmlns:xlink="http://www.w3.org/1999/xlink" id="Layer_1" width="1024" height="1024" x="0" y="0" enable-background="new 0 0 1024 1024" version="1.1" viewBox="0 0 1024 1024" xml:space="preserve"><rect width="4781.037" height="2764.835" x="-2187.43" y="-2471.335" display="none"/><g id="FG_5_"><defs><circle id="SVGID_37_" cx="810.354" cy="384.109" r="58.322"/></defs><clipPath id="SVGID_2_"><use overflow="visible" xlink:href="#SVGID_37_"/></clipPath><polygon fill="#B4B0A6" points="803.18 417.016 723.701 408.996 755.572 327.547" clip-path="url(#SVGID_2_)"/><polygon fill="#50514B" points="800.758 457.107 803.18 417.016 723.701 408.996" clip-path="url(#SVGID_2_)"/><polygon fill="#B9B1A4" points="803.18 417.016 854.933 327.637 882.677 411.127" clip-path="url(#SVGID_2_)"/><polygon fill="#6E6C67" points="854.933 327.637 803.407 417.1 755.572 327.547" clip-path="url(#SVGID_2_)"/><polygon fill="#6E6C67" points="885.73 410.26 800.758 457.107 803.18 417.016" clip-path="url(#SVGID_2_)"/><polygon fill="#A9A198" points="854.882 327.652 810.268 337.879 818.706 321.377" clip-path="url(#SVGID_2_)"/><polygon fill="#787975" points="883.287 411.547 856.709 413.037 844.432 392.398" clip-path="url(#SVGID_2_)"/><polygon fill="#777964" points="859.17 412.906 844.432 392.398 836.562 385.711 807.257 404.152 803.407 417.1" clip-path="url(#SVGID_2_)"/><polygon fill="#4A4944" points="859.17 412.906 839.539 423.9 803.407 417.1" clip-path="url(#SVGID_2_)"/><polygon fill="#CFCBC3" points="883.287 411.547 841.742 441.869 839.539 423.9" clip-path="url(#SVGID_2_)"/><polygon fill="#D0C9BC" points="755.79 327.98 768.484 351.865 767.959 332.094" clip-path="url(#SVGID_2_)"/><polygon fill="#939387" points="768.484 351.865 737.505 373.633 755.79 327.98" clip-path="url(#SVGID_2_)"/><polygon fill="#D8D7DB" points="723.701 408.996 734.982 369.297 755.79 327.98" clip-path="url(#SVGID_2_)"/><polygon fill="#363636" points="801.751 443.01 777.141 414.223 803.407 417.1" clip-path="url(#SVGID_2_)"/><polygon fill="#777964" points="803.407 417.1 771.116 432.334 723.328 408.826" clip-path="url(#SVGID_2_)"/><polygon fill="#5B5E47" points="787.932 383.387 723.328 408.826 803.407 417.1" clip-path="url(#SVGID_2_)"/><polygon fill="#F4EFE0" points="802.815 309.404 785.794 323.09 792.917 337.166" clip-path="url(#SVGID_2_)"/><polygon fill="#E4E4EC" points="787.483 321.789 778.218 321.721 792.917 337.166" clip-path="url(#SVGID_2_)"/><polygon fill="#EAE2CB" points="818.706 321.377 810.268 337.879 792.917 337.166 798.254 313.828 815.415 310.396" clip-path="url(#SVGID_2_)"/><path fill="#26322C" d="M761.239,331.018" clip-path="url(#SVGID_2_)"/><polygon fill="#B3AE9D" points="761.58 356.717 767.911 331.756 783.738 346.418" clip-path="url(#SVGID_2_)"/><polygon fill="#8B8377" points="783.738 346.418 767.856 331.875 778.602 321.725 792.917 337.166 796.501 342.85" clip-path="url(#SVGID_2_)"/><polygon fill="#ABAE9F" points="796.501 342.85 810.268 337.879 814.359 351.211" clip-path="url(#SVGID_2_)"/><polygon fill="#F4EFE0" points="817.291 371.447 795.944 386.369 807.257 404.152" clip-path="url(#SVGID_2_)"/><polygon fill="#777964" points="824.963 359.209 820.395 371.969 814.807 373.139 814.359 351.211" clip-path="url(#SVGID_2_)"/><polygon fill="#E4E4EC" points="800.066 383.479 782.876 383.35 807.257 404.152" clip-path="url(#SVGID_2_)"/><polygon fill="#D8D7DB" points="787.932 383.387 764.648 392.68 792.606 402.623 807.257 404.152" clip-path="url(#SVGID_2_)"/><polygon fill="#B3AE9D" points="787.932 383.387 780.042 373.529 764.648 392.68 764.648 392.68" clip-path="url(#SVGID_2_)"/><polygon fill="#EFE4D1" points="780.042 373.529 775.89 361.906 761.58 356.717 764.648 392.68" clip-path="url(#SVGID_2_)"/><polygon fill="#777964" points="783.738 346.418 761.58 356.717 775.89 361.906" clip-path="url(#SVGID_2_)"/><polyline fill="#EAE2CB" points="844.432 392.398 807.257 404.152 814.807 373.139 836.648 368.559 841.324 383.658" clip-path="url(#SVGID_2_)"/><polygon fill="#EAEAEA" points="814.359 351.211 783.738 346.418 796.501 342.85" clip-path="url(#SVGID_2_)"/><polygon fill="#ABAE9F" points="815.415 310.396 854.914 327.652 818.706 321.377" clip-path="url(#SVGID_2_)"/><polygon fill="#6E6C67" points="820.395 371.969 844.432 392.398 862.264 350.252" clip-path="url(#SVGID_2_)"/><polygon fill="#E4E4EC" points="820.395 371.969 825.7 357.043 862.264 350.252" clip-path="url(#SVGID_2_)"/><polygon fill="#D8D7DB" points="862.264 350.252 810.268 337.879 814.359 351.211 824.963 359.209" clip-path="url(#SVGID_2_)"/><polygon fill="#4A4944" points="844.432 392.398 868.276 367.906 875.71 388.244" clip-path="url(#SVGID_2_)"/></g></svg>