<svg xmlns="http://www.w3.org/2000/svg" xmlns:svg="http://www.w3.org/2000/svg" id="svg2" width="64" height="64" version="1.1"><metadata id="metadata8"/><g id="g3196" style="fill:#fff"><path id="path3013" d="m 12.018637,38.661088 c 0,0 -4.859659,-0.0888 -6.920817,0 -2.061158,0.0888 -2.430334,-2.070368 -2.430334,-2.070368 l 0,-8.529626 c 0,0 0.332707,-2.413423 2.4,-2.4 2.067293,0.01342 6.918263,0 6.918263,0 l 10.768123,-8.13001 3.893008,1.325855 0.08106,26.148759 -3.38956,1.38765 z" style="fill:#fff"/><g id="g3156" transform="translate(-45.559322,0)" style="fill:#fff"><rect id="rect3105" width="7.8" height="30.381" x="38.513" y="72.164" transform="matrix(0.70710678,-0.70710678,0.70710678,0.70710678,0,0)" style="fill:#fff"/><rect id="rect3105-0" width="7.8" height="30.381" x="83.149" y="-57.821" transform="matrix(0.70710678,0.70710678,-0.70710678,0.70710678,0,0)" style="fill:#fff"/></g></g></svg>