<svg xmlns="http://www.w3.org/2000/svg" xmlns:xlink="http://www.w3.org/1999/xlink" id="Layer_1" width="256" height="256" x="0" y="0" enable-background="new 0 0 256 256" version="1.1" viewBox="0 0 256 256" xml:space="preserve"><g id="asteroid_x5F_c"><polygon fill="#524655" points="194.479 48.064 194.479 48.066 116.569 32.338 1.646 76.705 44.369 224.21 205.683 219.615 205.721 219.493 205.868 219.775 241.812 156.103 255.004 60.285"/><polygon fill="#47394A" points="200.697 116.232 255.004 60.285 241.812 156.103"/><polygon fill="#524655" points="205.683 219.615 116.569 32.338 255.004 60.285"/><polygon fill="#47394A" points="116.569 32.338 165.5 115.333 205.683 219.615 44.369 224.21"/><polygon fill="#9B9198" points="116.569 32.338 44.369 224.21 1.646 76.705"/><polygon fill="#47394A" points="116.569 32.338 97.91 128.063 72.334 192.667 44.369 224.21"/><polygon fill="#6D5F71" points="238.862 112.327 200.697 116.232 165.5 115.333 174.676 160.166 205.868 219.775"/><polygon fill="#3F374A" points="255.004 60.285 238.862 112.327 200.697 116.232"/><polygon fill="#9B9198" points="200.697 116.232 194.479 48.064 255.004 60.285"/><polygon fill="#9B9198" points="200.697 116.232 203.865 128.838 238.862 112.327"/><polygon fill="#47394A" points="203.865 128.838 205.868 219.775 238.862 112.327"/><polygon fill="#817188" points="203.865 128.838 174.676 160.166 200.697 116.232"/><polygon fill="#524655" points="203.865 128.838 174.676 160.166 205.158 187.673"/><polygon fill="#3F374A" points="238.862 112.327 241.812 156.103 205.868 219.775"/><polygon fill="#9B9198" points="1.646 76.705 43.623 60.5 9.58 104.095"/><polygon fill="#524655" points="43.623 60.5 44.369 224.21 9.58 104.095"/><polygon fill="#3F374A" points="44.369 224.21 89.008 222.938 72.334 192.667"/><polygon fill="#3F374A" points="97.91 128.063 205.683 219.615 174.676 160.166 165.5 115.333"/><polygon fill="#524655" points="97.91 128.063 72.334 192.667 89.008 222.938"/></g></svg>