<svg xmlns="http://www.w3.org/2000/svg" xmlns:xlink="http://www.w3.org/1999/xlink" id="Layer_1" width="512" height="512" x="0" y="0" enable-background="new 0 0 512 512" version="1.1" viewBox="0 0 512 512" xml:space="preserve"><radialGradient id="SVGID_2_" cx="256" cy="235.682" r="209.037" gradientUnits="userSpaceOnUse"><stop offset="0" style="stop-color:#fcdb43"/><stop offset=".468" style="stop-color:#f5b81c"/><stop offset=".963" style="stop-color:#f5b81c;stop-opacity:.0692"/><stop offset="1" style="stop-color:#f5b81c;stop-opacity:0"/></radialGradient><circle cx="256" cy="235.682" r="209.037" fill="url(#SVGID_2_)" opacity=".6"/><circle cx="256" cy="235.682" r="181.008" fill="none" stroke="#FFF" stroke-miterlimit="10" stroke-width="2" opacity=".3"/><g opacity=".3"><defs><circle id="SVGID_4_" cx="256" cy="235.682" r="176.342" opacity=".3"/></defs><clipPath id="SVGID_3_"><use overflow="visible" xlink:href="#SVGID_4_"/></clipPath><line x1="55.046" x2="450.708" y1="38.009" y2="433.671" fill="none" stroke="#FFF" stroke-miterlimit="10" stroke-width="3" clip-path="url(#SVGID_3_)" opacity=".3"/><line x1="25.046" x2="420.708" y1="68.009" y2="463.671" fill="none" stroke="#FFF" stroke-miterlimit="10" stroke-width="3" clip-path="url(#SVGID_3_)" opacity=".3"/><line x1="-4.954" x2="390.708" y1="98.009" y2="493.671" fill="none" stroke="#FFF" stroke-miterlimit="10" stroke-width="3" clip-path="url(#SVGID_3_)" opacity=".3"/><line x1="-34.954" x2="360.708" y1="128.009" y2="523.671" fill="none" stroke="#FFF" stroke-miterlimit="10" stroke-width="3" clip-path="url(#SVGID_3_)" opacity=".3"/><line x1="85.046" x2="480.708" y1="0" y2="395.662" fill="none" stroke="#FFF" stroke-miterlimit="10" stroke-width="3" clip-path="url(#SVGID_3_)" opacity=".3"/><line x1="116.338" x2="512" y1="-30" y2="365.662" fill="none" stroke="#FFF" stroke-miterlimit="10" stroke-width="3" clip-path="url(#SVGID_3_)" opacity=".3"/><line x1="146.338" x2="542" y1="-60" y2="335.662" fill="none" stroke="#FFF" stroke-miterlimit="10" stroke-width="3" clip-path="url(#SVGID_3_)" opacity=".3"/><line x1="447.35" x2="51.688" y1="33.358" y2="429.021" fill="none" stroke="#FFF" stroke-miterlimit="10" stroke-width="3" clip-path="url(#SVGID_3_)" opacity=".3"/><line x1="417.35" x2="21.688" y1="3.358" y2="399.021" fill="none" stroke="#FFF" stroke-miterlimit="10" stroke-width="3" clip-path="url(#SVGID_3_)" opacity=".3"/><line x1="387.35" x2="-8.312" y1="-26.642" y2="369.021" fill="none" stroke="#FFF" stroke-miterlimit="10" stroke-width="3" clip-path="url(#SVGID_3_)" opacity=".3"/><line x1="357.35" x2="-38.312" y1="-56.642" y2="339.021" fill="none" stroke="#FFF" stroke-miterlimit="10" stroke-width="3" clip-path="url(#SVGID_3_)" opacity=".3"/><line x1="485.358" x2="89.696" y1="63.358" y2="459.021" fill="none" stroke="#FFF" stroke-miterlimit="10" stroke-width="3" clip-path="url(#SVGID_3_)" opacity=".3"/><line x1="515.358" x2="119.696" y1="94.65" y2="490.312" fill="none" stroke="#FFF" stroke-miterlimit="10" stroke-width="3" clip-path="url(#SVGID_3_)" opacity=".3"/><line x1="545.358" x2="149.696" y1="124.65" y2="520.312" fill="none" stroke="#FFF" stroke-miterlimit="10" stroke-width="3" clip-path="url(#SVGID_3_)" opacity=".3"/><use fill="none" stroke="#FFF" stroke-miterlimit="10" stroke-width="3" overflow="visible" xlink:href="#SVGID_4_"/></g><ellipse cx="256" cy="235.682" fill="none" stroke="#FFF" stroke-dasharray="1 10" stroke-miterlimit="10" stroke-width="3" opacity=".3" rx="73.098" ry="197.674" transform="matrix(0.7071 -0.7071 0.7071 0.7071 -91.6718 250.0474)"/><ellipse cx="256" cy="235.683" fill="none" stroke="#FFF" stroke-dasharray="1 10" stroke-miterlimit="10" stroke-width="3" opacity=".3" rx="197.674" ry="26.985"/><ellipse cx="255.999" cy="235.682" fill="none" stroke="#FFF" stroke-dasharray="1 10" stroke-miterlimit="10" stroke-width="3" opacity=".3" rx="126.021" ry="197.673" transform="matrix(0.7071 0.7071 -0.7071 0.7071 241.6328 -111.989)"/><circle cx="188.633" cy="171.991" r="7.575" fill="#FFF"/><circle cx="288.666" cy="177.875" r="4.438" fill="#FFF" opacity=".7"/><circle cx="225" cy="268.961" r="4.438" fill="#FFF" opacity=".7"/><circle cx="288.666" cy="240.417" r="9.884" fill="#FFF" opacity=".7"/><circle cx="213.967" cy="208.698" r="2.607" fill="#FFF" opacity=".7"/><circle cx="350.804" cy="232" r="2.476" fill="#FFF" opacity=".7"/><circle cx="188.633" cy="171.991" r="9.742" fill="none" stroke="#FFF" stroke-dasharray="2 4" stroke-miterlimit="10" opacity=".7"/><g><circle cx="306.41" cy="288.269" r="5.441" fill="#FFF"/><circle cx="306.41" cy="288.269" r="6.997" fill="none" stroke="#FFF" stroke-dasharray="2 4" stroke-miterlimit="10" opacity=".7"/><circle cx="306.41" cy="288.269" r="10.164" fill="none" stroke="#FFF" stroke-miterlimit="10" opacity=".7"/><circle cx="321.776" cy="300.324" r="3.934" fill="#FFF"/><circle cx="321.776" cy="300.324" r="5.452" fill="none" stroke="#FFF" stroke-dasharray="2 4" stroke-miterlimit="10" opacity=".7"/><circle cx="321.776" cy="300.324" r="8.369" fill="none" stroke="#FFF" stroke-miterlimit="10" opacity=".7"/></g><circle cx="170.357" cy="281.272" r="2.607" fill="#FFF" opacity=".7"/><circle cx="266.226" cy="326.524" r="2.607" fill="#FFF" opacity=".7"/><path fill="none" stroke="#FFF" stroke-dasharray="2 4" stroke-miterlimit="10" d="M285.166,288.031	c0,0-45.044,3.382-35.666-55.568c10.467-65.796-46.532-60.472-46.532-60.472"/><polygon fill="#FFF" points="287.166 285 287.166 291.649 293.134 288.325"/></svg>