<svg xmlns="http://www.w3.org/2000/svg" xmlns:xlink="http://www.w3.org/1999/xlink" id="Layer_1" width="512" height="512" x="0" y="0" enable-background="new 0 0 512 512" version="1.1" viewBox="0 0 512 512" xml:space="preserve"><g><g opacity=".1"><circle cx="288.666" cy="177.875" r="2.75" fill="#FFF8EA"/><circle cx="271.776" cy="203.485" r="2.943" fill="#FFF3D0"/><circle cx="246" cy="359" r="3.5" fill="#FFF3D0"/><circle cx="106" cy="201.5" r="3.5" fill="#FFF3D0"/><circle cx="91.75" cy="180.25" r="2.75" fill="#FFF3D0"/><circle cx="165.5" cy="157.5" r="2.25" fill="#FFF8EA"/><circle cx="253.01" cy="497.101" r="1.75" fill="#FFF3D0"/><circle cx="101.875" cy="178.875" r="1.375" fill="#FFF3D0"/><circle cx="8.5" cy="407" r="3.5" fill="#FFF3D0"/><circle cx="467.721" cy="89" r="2.5" fill="#FFF3D0"/><circle cx="460.971" cy="75.25" r="1.75" fill="#FFF3D0"/><circle cx="351.787" cy="36.562" r="1.99" fill="#FFF3D0"/><circle cx="83.25" cy="48.489" r="2.75" fill="#FFF3D0"/><circle cx="67.74" cy="130.376" r="2.225" fill="#FFF8EA"/><circle cx="313.196" cy="108.906" r="3" fill="#FFF3D0"/><circle cx="347.991" cy="152.438" r="2.812" fill="#FFF3D0"/><circle cx="103.667" cy="353.834" r="1.667" fill="#FFF3D0"/><circle cx="117.667" cy="346.834" r="1.333" fill="#FFF3D0"/><circle cx="181.583" cy="260.342" r="3.833" fill="#FFF8EA"/><circle cx="212.261" cy="483.434" r="3.333" fill="#FFF3D0"/><circle cx="285.166" cy="214.375" r="2" fill="#FFF3D0"/><circle cx="351.559" cy="301.806" r="2.896" fill="#FFF8EA"/><circle cx="306.319" cy="429.9" r="2.75" fill="#FFF3D0"/><circle cx="333.849" cy="440.573" r="3.252" fill="#FFF8EA"/><circle cx="342.972" cy="428.857" r="2" fill="#FFF3D0"/><circle cx="470.934" cy="437.651" r="2.83" fill="#FFF8EA"/><circle cx="457.251" cy="453.792" r="2.125" fill="#FFF3D0"/></g><g opacity=".2"><circle cx="494.165" cy="171.539" r="2.887" fill="#FFF3D0"/><circle cx="228" cy="94.5" r="3" fill="#FFF8EA"/><circle cx="175.75" cy="51.489" r="2" fill="#FFF3D0"/><circle cx="6.75" cy="397.25" r="1.75" fill="#FFF3D0"/><circle cx="429.5" cy="234" r="2" fill="#FFF3D0"/><circle cx="434.596" cy="12.599" r="2.125" fill="#FFF3D0"/><circle cx="163.667" cy="311.295" r="3.333" fill="#FFF8EA"/><circle cx="152.5" cy="312.128" r="2.5" fill="#FFF8EA"/><circle cx="233.594" cy="291.649" r="1.75" fill="#FFF3D0"/><circle cx="197.54" cy="477.288" r="2.813" fill="#FFF8EA"/><circle cx="97" cy="268.961" r="2.5" fill="#FFF8EA"/><circle cx="459.988" cy="389.645" r="3.5" fill="#FFF3D0"/></g><g opacity=".4"><circle cx="394.75" cy="334" r="2.75" fill="#FFF3D0"/><circle cx="309.07" cy="28" r="3" fill="#FFF8EA"/><circle cx="324" cy="384.02" r="2.125" fill="#FFF3D0"/><circle cx="434.104" cy="484.816" r="2.038" fill="#FFF3D0"/><circle cx="381.791" cy="454.091" r="2" fill="#FFF3D0"/><circle cx="141" cy="145" r="1.5" fill="#FFF8EA"/><circle cx="34.75" cy="320.667" r="3.25" fill="#FFF3D0"/><circle cx="69.964" cy="63.333" r="1.317" fill="#FFF8EA"/><circle cx="425.282" cy="91.5" r="2.218" fill="#FFF3D0"/><circle cx="357.705" cy="159.75" r="2.438" fill="#FFF8EA"/><circle cx="175.333" cy="284.295" r="1.667" fill="#FFF3D0"/><circle cx="487.326" cy="275.628" r="2" fill="#FFF3D0"/><circle cx="251.25" cy="219.125" r="1.75" fill="#FFF8EA"/><circle cx="228" cy="203.485" r="2.501" fill="#FFF3D0"/><circle cx="139.5" cy="427.15" r="3.119" fill="#FFF3D0"/><circle cx="27.95" cy="157.944" r="2.125" fill="#FFF3D0"/><circle cx="105.779" cy="496.542" r="2.437" fill="#FFF3D0"/><circle cx="351.883" cy="461.924" r="1.75" fill="#FFF3D0"/></g></g><g opacity=".1"><defs><path id="SVGID_6_" d="M529.769,232.617c36.621,7.938,80.203,11.292,132.069,8.043 c239.725-15.019,262.594-92.092,419.467-78.713L1081.3,24.186c-73.056-19.267-171.738-41.973-287.805-2.329 C674,62.673,597.695,70.824,529.773,61.284L529.769,232.617z" opacity=".1"/></defs><clipPath id="SVGID_2_"><use overflow="visible" xlink:href="#SVGID_6_"/></clipPath><polygon fill="#E6E7E8" points="306.07 173.812 459.988 -16.949 473.765 271.313" clip-path="url(#SVGID_2_)"/><polygon fill="#F1F2F2" points="473.765 271.313 459.988 -16.949 644.729 7.324" clip-path="url(#SVGID_2_)"/><polygon fill="#D1D3D4" points="473.765 271.313 644.729 7.324 879.993 258.706" clip-path="url(#SVGID_2_)"/></g><g opacity=".1"><defs><path id="SVGID_8_" d="M1081.306,514.252c-36.621,8.583-80.203,12.209-132.069,8.696 C709.512,506.71,686.643,423.38,529.77,437.845l0.005-148.943c73.056-20.831,173.172-47.081,287.805-2.518 C938,333.197,1018,339.066,1081.301,329.011L1081.306,514.252z" opacity=".1"/></defs><clipPath id="SVGID_3_"><use overflow="visible" xlink:href="#SVGID_8_"/></clipPath><polygon fill="#F1F2F2" points="731.081 542.458 698.834 244.428 502.208 491.328" clip-path="url(#SVGID_3_)"/><polygon fill="#E6E7E8" points="502.208 491.328 698.834 244.428 387.598 270.67" clip-path="url(#SVGID_3_)"/></g><g opacity=".1"><defs><path id="SVGID_14_" d="M529.773,698.766c155.992,59.793,327.486,99.787,479.984,76.897 c26.969-4.048,50.717-8.571,71.549-13.49l-0.002-221.347c0,0-256.303,73.732-551.535,50.724L529.773,698.766z" opacity=".1"/></defs><clipPath id="SVGID_5_"><use overflow="visible" xlink:href="#SVGID_14_"/></clipPath><polygon fill="#F1F2F2" points="58.023 320.941 -82.725 563.939 544.469 536.62" clip-path="url(#SVGID_5_)"/></g></svg>