<svg xmlns="http://www.w3.org/2000/svg" xmlns:xlink="http://www.w3.org/1999/xlink" id="Layer_1" width="551.531" height="190.549" x="0" y="0" enable-background="new 0 0 551.531 190.549" version="1.1" viewBox="0 0 551.531 190.549" xml:space="preserve"><g opacity=".1"><defs><path id="SVGID_6_" d="M-564.004,33.026c36.621,7.938,80.203,11.292,132.069,8.043 C-192.21,26.051-169.341-51.022-12.468-37.644l-0.005-137.761c-73.056-19.267-171.738-41.973-287.805-2.329 c-119.495,40.815-195.8,48.966-263.722,39.426L-564.004,33.026z" opacity=".1"/></defs><clipPath id="SVGID_2_"><use overflow="visible" xlink:href="#SVGID_6_"/></clipPath><polygon fill="#F1F2F2" points="-213.779 59.115 -181.532 -216.54 15.094 11.824" clip-path="url(#SVGID_2_)"/><polygon fill="#E6E7E8" points="15.094 11.824 -181.532 -216.54 129.704 -192.267" clip-path="url(#SVGID_2_)"/></g><g opacity=".1"><defs><path id="SVGID_8_" d="M-12.467,314.661c-36.621,8.583-80.203,12.209-132.069,8.696 c-239.725-16.238-262.594-99.568-419.467-85.104l0.005-148.943c73.056-20.831,173.172-47.081,287.805-2.518 c120.421,46.813,200.421,52.683,263.722,42.627L-12.467,314.661z" opacity=".1"/></defs><clipPath id="SVGID_3_"><use overflow="visible" xlink:href="#SVGID_8_"/></clipPath><polygon fill="#E6E7E8" points="211.231 251.082 57.313 44.837 43.537 356.499" clip-path="url(#SVGID_3_)"/><polygon fill="#F1F2F2" points="43.537 356.499 57.313 44.837 -127.428 71.079" clip-path="url(#SVGID_3_)"/><polygon fill="#D1D3D4" points="43.537 356.499 -127.428 71.079 -362.691 342.867" clip-path="url(#SVGID_3_)"/></g><g opacity=".1"><defs><path id="SVGID_10_" d="M0-45.397c32.228-15.133,85.227-48.076,262.228,7.756c101,31.859,235,40.486,289.305-14.921 v-130.713C230.228-233.901,0-142.401,0-142.401V-45.397z" opacity=".1"/></defs><clipPath id="SVGID_5_"><use overflow="visible" xlink:href="#SVGID_10_"/></clipPath><polygon fill="#F1F2F2" points="-22.628 95.153 134.559 -286.881 -195.507 -84.089" clip-path="url(#SVGID_5_)"/><polygon fill="#E6E7E8" points="-22.628 95.153 134.559 -286.881 396.349 24.058" clip-path="url(#SVGID_5_)"/><polygon fill="#D1D3D4" points="396.349 24.058 134.559 -286.881 334.399 -353.087" clip-path="url(#SVGID_5_)"/><polygon fill="#F1F2F2" points="396.349 24.058 334.399 -353.087 579.247 85.097" clip-path="url(#SVGID_5_)"/><polygon fill="#E6E7E8" points="579.247 85.097 334.399 -353.087 745.804 -107.659" clip-path="url(#SVGID_5_)"/></g><g opacity=".1"><defs><path id="SVGID_12_" d="M551.531,154.188c-32.227-15.133-85.227-48.076-262.227,7.756 c-101,31.859-235,40.486-289.305-14.922V16.309c321.305-50.625,551.531,40.875,551.531,40.875V154.188z" opacity=".1"/></defs><clipPath id="SVGID_7_"><use overflow="visible" xlink:href="#SVGID_12_"/></clipPath><polygon fill="#F1F2F2" points="574.16 294.738 416.973 -87.297 747.039 115.496" clip-path="url(#SVGID_7_)"/><polygon fill="#E6E7E8" points="574.16 294.738 416.973 -87.297 155.184 223.643" clip-path="url(#SVGID_7_)"/><polygon fill="#D1D3D4" points="155.184 223.643 416.973 -87.297 217.133 -153.502" clip-path="url(#SVGID_7_)"/><polygon fill="#F1F2F2" points="155.184 223.643 217.133 -153.502 -27.715 284.682" clip-path="url(#SVGID_7_)"/><polygon fill="#E6E7E8" points="-27.715 284.682 217.133 -153.502 -194.271 91.926" clip-path="url(#SVGID_7_)"/></g><g opacity=".1"><defs><path id="SVGID_14_" d="M-563.999,499.175c155.992,59.793,327.486,99.787,479.984,76.897 c26.969-4.048,50.717-8.571,71.549-13.49l-0.002-221.347c0,0-256.303,73.732-551.535,50.724L-563.999,499.175z" opacity=".1"/></defs><clipPath id="SVGID_9_"><use overflow="visible" xlink:href="#SVGID_14_"/></clipPath></g><g opacity=".1"><defs><path id="SVGID_18_" d="M551.304,225.914c-31.515-3.368-63.218-3.38-95.498,5.044 c-84.531,22.059-156.318,58.832-246.555,55.636c-34.396-1.219-131.65-22.584-209.25-20.178l-0.002,40.736 c78.874,11.057,154.982,44.096,238.107,49.759c52.846,3.601,106.513-27.628,151.994-50.506 c54.001-27.162,92.821-40.177,153.393-43.569c2.679-0.15,5.358-0.301,8.039-0.451L551.304,225.914z" opacity=".1"/></defs><clipPath id="SVGID_11_"><use overflow="visible" xlink:href="#SVGID_18_"/></clipPath><polygon fill="#F1F2F2" points="481.228 357.196 397.776 145.645 653.045 212.519" clip-path="url(#SVGID_11_)"/><polygon fill="#E6E7E8" points="481.228 357.196 397.776 145.645 196.849 384.646" clip-path="url(#SVGID_11_)"/><polygon fill="#D1D3D4" points="196.849 384.646 397.776 145.645 131.228 179.519" clip-path="url(#SVGID_11_)"/><polygon fill="#F1F2F2" points="196.849 384.646 131.228 179.519 17.228 384.646" clip-path="url(#SVGID_11_)"/><polygon fill="#E6E7E8" points="17.228 384.646 131.228 179.519 -73.146 281.901" clip-path="url(#SVGID_11_)"/></g></svg>